<svg aria-hidden="true" style="position: absolute; width: 0; height: 0; overflow: hidden;" version="1.1"
    xmlns="http://www.w3.org/2000/svg" xmlns:xlink="http://www.w3.org/1999/xlink">
    <defs>
        <symbol id="icon-Calendar" viewBox="0 0 32 32">
            <path
                d="M11.556 1.481v2.963h8.889v-2.963h2.963v2.963h5.926c0.818 0 1.481 0.663 1.481 1.482v23.704c0 0.818-0.663 1.482-1.481 1.482h-26.667c-0.818 0-1.481-0.663-1.481-1.482v-23.704c0-0.818 0.663-1.482 1.481-1.482h5.926v-2.963h2.963zM27.852 16.296h-23.704v11.852h23.704v-11.852zM10.074 19.259v2.963h-2.963v-2.963h2.963zM17.481 19.259v2.963h-2.963v-2.963h2.963zM24.889 19.259v2.963h-2.963v-2.963h2.963zM8.592 7.407h-4.444v5.926h23.704v-5.926h-4.444v2.963h-2.963v-2.963h-8.889v2.963h-2.963v-2.963z">
            </path>
        </symbol>
        <symbol id="icon-Call" viewBox="0 0 32 32">
            <path
                d="M11.609 13.803c1.561 2.744 3.843 5.026 6.587 6.587l1.474-2.064c0.49-0.686 1.415-0.898 2.155-0.494 2.345 1.281 4.936 2.059 7.639 2.273 0.867 0.069 1.535 0.792 1.535 1.661v7.438c0 0.855-0.646 1.571-1.496 1.658-0.883 0.091-1.774 0.137-2.67 0.137-14.267 0-25.833-11.566-25.833-25.833 0-0.896 0.046-1.787 0.136-2.67 0.087-0.85 0.803-1.496 1.658-1.496h7.438c0.869 0 1.593 0.668 1.661 1.535 0.214 2.703 0.992 5.294 2.273 7.639 0.404 0.74 0.192 1.665-0.494 2.155l-2.064 1.474zM7.407 12.709l3.167-2.262c-0.898-1.938-1.513-3.994-1.828-6.113h-4.397c-0.010 0.277-0.015 0.555-0.015 0.833 0 12.426 10.074 22.5 22.5 22.5 0.278 0 0.556-0.005 0.833-0.015v-4.397c-2.12-0.315-4.175-0.93-6.113-1.828l-2.262 3.167c-0.915-0.356-1.799-0.774-2.646-1.25l-0.097-0.055c-3.266-1.857-5.98-4.571-7.837-7.837l-0.055-0.097c-0.476-0.847-0.894-1.731-1.249-2.646z">
            </path>
        </symbol>
        <symbol id="icon-Home" viewBox="0 0 35 32">
            <path
                d="M30.4 30.4c0 0.884-0.716 1.6-1.6 1.6h-22.4c-0.884 0-1.6-0.716-1.6-1.6v-14.4h-4.8l16.524-15.022c0.61-0.555 1.542-0.555 2.153 0l16.524 15.022h-4.8v14.4zM27.2 28.8v-15.748l-9.6-8.727-9.6 8.727v15.748h19.2zM17.6 25.6l-5.374-5.374c-1.406-1.406-1.406-3.685 0-5.091s3.685-1.406 5.091 0l0.283 0.283 0.283-0.283c1.406-1.406 3.685-1.406 5.091 0s1.406 3.685 0 5.091l-5.374 5.374z">
            </path>
        </symbol>
        <symbol id="icon-Mail" viewBox="0 0 36 32">
            <path
                d="M3 1h30c0.92 0 1.667 0.746 1.667 1.667v26.667c0 0.92-0.746 1.667-1.667 1.667h-30c-0.92 0-1.667-0.746-1.667-1.667v-26.667c0-0.92 0.746-1.667 1.667-1.667zM31.333 8.063l-13.214 11.833-13.453-11.87v19.64h26.667v-19.603zM5.519 4.333l12.584 11.103 12.399-11.103h-24.983z">
            </path>
        </symbol>
        <symbol id="icon-close" viewBox="0 0 32 32">
            <path
                d="M16.002 12.769l11.314-11.314 3.232 3.232-11.314 11.314 11.314 11.314-3.232 3.232-11.314-11.314-11.314 11.314-3.232-3.232 11.314-11.314-11.314-11.314 3.232-3.232 11.314 11.314z">
            </path>
        </symbol>
        <symbol id="icon-coin" viewBox="0 0 32 32">
            <path fill="#f9f9f5" style="fill: var(--color1, #f9f9f5)"
                d="M16.007 30.226c-7.855 0-14.222-6.367-14.222-14.222s6.368-14.222 14.222-14.222c7.855 0 14.222 6.367 14.222 14.222s-6.368 14.222-14.222 14.222zM16.007 27.382c6.284 0 11.378-5.094 11.378-11.378s-5.094-11.378-11.378-11.378-11.378 5.094-11.378 11.378c0 6.284 5.094 11.378 11.378 11.378zM11.029 18.849h7.822c0.393 0 0.711-0.318 0.711-0.711s-0.318-0.711-0.711-0.711h-5.689c-1.964 0-3.556-1.592-3.556-3.556s1.592-3.556 3.556-3.556h1.422v-2.844h2.844v2.844h3.556v2.844h-7.822c-0.393 0-0.711 0.318-0.711 0.711s0.318 0.711 0.711 0.711h5.689c1.964 0 3.556 1.592 3.556 3.556s-1.592 3.556-3.556 3.556h-1.422v2.844h-2.844v-2.844h-3.556v-2.844z">
            </path>
        </symbol>
        <symbol id="icon-entrance" viewBox="0 0 32 32">
            <path
                d="M6.095 25.143h3.048v3.048h18.286v-24.381h-18.286v3.048h-3.048v-4.571c0-0.842 0.682-1.524 1.524-1.524h21.333c0.842 0 1.524 0.682 1.524 1.524v27.429c0 0.842-0.682 1.524-1.524 1.524h-21.333c-0.842 0-1.524-0.682-1.524-1.524v-4.571zM9.143 14.476h10.667v3.048h-10.667v4.571l-7.619-6.095 7.619-6.095v4.571z">
            </path>
        </symbol>
        <symbol id="icon-facebook" viewBox="0 0 32 32">
            <path
                d="M17.602 28.701c6.314-0.787 11.2-6.174 11.2-12.701 0-7.069-5.731-12.8-12.8-12.8s-12.8 5.731-12.8 12.8c0 6.527 4.886 11.914 11.2 12.701v-9.501h-3.2v-3.2h3.2v-2.647c0-2.14 0.223-2.915 0.641-3.698s1.032-1.396 1.814-1.814c0.612-0.327 1.372-0.525 2.699-0.61 0.527-0.034 1.209 0.009 2.045 0.129v3.040h-0.8c-1.468 0-2.073 0.069-2.435 0.263-0.224 0.12-0.382 0.277-0.502 0.502-0.194 0.362-0.263 0.721-0.263 2.189v2.647h4l-0.8 3.2h-3.2v9.501zM16.002 32c-8.837 0-16-7.164-16-16s7.163-16 16-16c8.836 0 16 7.163 16 16s-7.164 16-16 16z">
            </path>
        </symbol>
        <symbol id="icon-instagram" viewBox="0 0 32 32">
            <path
                d="M16.002 11.2c-2.652 0-4.8 2.149-4.8 4.8s2.149 4.8 4.8 4.8c2.652 0 4.8-2.149 4.8-4.8s-2.149-4.8-4.8-4.8zM16.002 8c4.417 0 8 3.579 8 8 0 4.417-3.579 8-8 8-4.417 0-8-3.579-8-8 0-4.417 3.579-8 8-8zM26.402 7.599c0 1.104-0.897 2-2 2-1.104 0-2-0.897-2-2s0.897-1.999 2-1.999c1.101-0.001 2 0.896 2 1.999zM16.002 3.2c-3.959 0-4.604 0.010-6.446 0.092-1.255 0.059-2.096 0.228-2.877 0.531-0.694 0.269-1.195 0.591-1.729 1.125-0.536 0.536-0.857 1.035-1.125 1.73-0.304 0.783-0.473 1.623-0.531 2.876-0.083 1.766-0.092 2.384-0.092 6.446 0 3.959 0.010 4.604 0.092 6.446 0.059 1.254 0.228 2.096 0.53 2.876 0.27 0.695 0.592 1.197 1.123 1.729 0.538 0.537 1.039 0.859 1.727 1.125 0.791 0.306 1.631 0.475 2.88 0.532 1.767 0.083 2.384 0.092 6.446 0.092 3.959 0 4.604-0.011 6.446-0.092 1.251-0.059 2.094-0.228 2.876-0.531 0.693-0.269 1.197-0.593 1.729-1.123 0.538-0.539 0.859-1.039 1.125-1.728 0.305-0.788 0.474-1.63 0.532-2.879 0.083-1.767 0.092-2.384 0.092-6.446 0-3.959-0.011-4.604-0.092-6.446-0.059-1.252-0.228-2.096-0.531-2.877-0.269-0.692-0.591-1.195-1.125-1.729-0.537-0.537-1.035-0.857-1.73-1.125-0.783-0.304-1.624-0.473-2.876-0.531-1.766-0.083-2.384-0.092-6.446-0.092zM16.002 0c4.347 0 4.889 0.016 6.596 0.096 1.703 0.079 2.864 0.348 3.884 0.744 1.055 0.407 1.945 0.956 2.835 1.845 0.888 0.889 1.437 1.783 1.845 2.835 0.395 1.019 0.664 2.181 0.744 3.884 0.076 1.707 0.096 2.249 0.096 6.596s-0.016 4.889-0.096 6.596c-0.079 1.703-0.349 2.864-0.744 3.884-0.407 1.055-0.957 1.945-1.845 2.835-0.889 0.888-1.784 1.437-2.835 1.845-1.020 0.395-2.181 0.664-3.884 0.744-1.707 0.076-2.249 0.096-6.596 0.096s-4.889-0.016-6.596-0.096c-1.703-0.079-2.863-0.349-3.884-0.744-1.053-0.407-1.945-0.957-2.835-1.845-0.889-0.889-1.437-1.784-1.845-2.835-0.396-1.020-0.664-2.181-0.744-3.884-0.076-1.707-0.096-2.249-0.096-6.596s0.016-4.889 0.096-6.596c0.079-1.704 0.348-2.864 0.744-3.884 0.407-1.053 0.956-1.945 1.845-2.835s1.783-1.437 2.835-1.845c1.020-0.396 2.18-0.664 3.884-0.744 1.707-0.076 2.249-0.096 6.596-0.096z">
            </path>
        </symbol>
        <symbol id="icon-telegram" viewBox="0 0 32 32">
            <path
                d="M16.002 28.8c7.069 0 12.8-5.731 12.8-12.8s-5.731-12.8-12.8-12.8-12.8 5.731-12.8 12.8c0 7.069 5.731 12.8 12.8 12.8zM16.002 32c-8.837 0-16-7.164-16-16s7.163-16 16-16c8.836 0 16 7.163 16 16s-7.164 16-16 16zM11.026 17.873l-3.997-1.248c-0.864-0.265-0.869-0.859 0.193-1.286l15.573-6.015c0.903-0.37 1.417 0.097 1.124 1.262l-2.652 12.514c-0.185 0.89-0.722 1.102-1.465 0.691l-4.081-3.020-1.902 1.836c-0.196 0.189-0.355 0.351-0.654 0.391s-0.547-0.048-0.726-0.545l-1.391-4.593-0.020 0.013z">
            </path>
        </symbol>
        <symbol id="icon-youtube" viewBox="0 0 32 32">
            <path
                d="M28.171 7.992c-0.122-0.477-0.467-0.836-0.862-0.947-0.702-0.196-4.108-0.645-11.308-0.645s-10.606 0.449-11.31 0.645c-0.391 0.109-0.736 0.468-0.859 0.947-0.174 0.679-0.631 3.522-0.631 8.008s0.457 7.329 0.631 8.010c0.121 0.475 0.466 0.834 0.859 0.945 0.704 0.196 4.11 0.645 11.31 0.645s10.606-0.449 11.31-0.645c0.391-0.109 0.736-0.468 0.86-0.947 0.174-0.679 0.631-3.528 0.631-8.008s-0.456-7.329-0.631-8.008zM31.271 7.197c0.731 2.851 0.731 8.803 0.731 8.803s0 5.952-0.731 8.803c-0.407 1.577-1.596 2.816-3.102 3.235-2.734 0.762-12.167 0.762-12.167 0.762s-9.428 0-12.167-0.762c-1.512-0.425-2.7-1.664-3.102-3.235-0.731-2.851-0.731-8.803-0.731-8.803s0-5.952 0.731-8.803c0.407-1.577 1.596-2.816 3.102-3.235 2.739-0.762 12.167-0.762 12.167-0.762s9.434 0 12.167 0.762c1.512 0.425 2.7 1.664 3.102 3.235zM12.802 21.6v-11.2l9.6 5.6-9.6 5.6z">
            </path>
        </symbol>
        <symbol id="icon-heart" viewBox="0 0 33 32">
            <path fill="#bb5f65" style="fill: var(--color2, #bb5f65)"
                d="M16.667 31.306c-0.12 0-0.24-0.031-0.348-0.094-0.166-0.096-4.106-2.394-8.11-6.096-5.447-5.037-8.209-10.014-8.209-14.792 0-6.441 4.36-9.375 8.412-9.375 3.124 0 6.618 1.786 8.255 5.715 1.637-3.928 5.131-5.715 8.255-5.715 4.051 0 8.412 2.934 8.412 9.375 0 4.778-2.762 9.756-8.209 14.792-4.003 3.702-7.944 6.001-8.11 6.096-0.108 0.063-0.228 0.094-0.348 0.094zM8.412 2.338c-3.383 0-7.023 2.499-7.023 7.986 0 9.627 12.968 18.053 15.278 19.476 2.308-1.424 15.278-9.856 15.278-19.476 0-5.487-3.64-7.986-7.023-7.986-3.106 0-6.653 2.126-7.573 6.877-0.063 0.326-0.349 0.563-0.682 0.563s-0.619-0.236-0.682-0.563c-0.92-4.75-4.467-6.877-7.573-6.877z">
            </path>
        </symbol>
        <symbol id="icon-burger" viewBox="0 0 32 32">
            <path d="M4 5.333h24v2.667h-24v-2.667zM4 14.667h24v2.667h-24v-2.667zM4 24h24v2.667h-24v-2.667z"></path>
        </symbol>
        <symbol id="icon-logo" viewBox="0 0 87 32">
            <path fill="#fb8c00" style="fill: var(--color3, #fb8c00)"
                d="M46.377 19.554l1.844 2.508 1.844-2.508h1.699l-2.627 3.601 2.839 3.901h-1.721l-2.034-2.733-2.023 2.733h-1.677l2.828-3.847-2.649-3.654h1.677z">
            </path>
            <path fill="#fb8c00" style="fill: var(--color3, #fb8c00)"
                d="M57.364 24.076c0.738 0.214 1.107 0.672 1.107 1.372 0 0.514-0.201 0.911-0.604 1.189s-0.999 0.418-1.788 0.418h-3.040v-5.722h2.917c0.73 0 1.3 0.129 1.71 0.386s0.615 0.622 0.615 1.093c0 0.293-0.082 0.547-0.246 0.761-0.156 0.214-0.38 0.382-0.671 0.504zM54.369 23.723h1.464c0.723 0 1.084-0.239 1.084-0.718 0-0.464-0.361-0.697-1.084-0.697h-1.464v1.415zM55.967 26.080c0.767 0 1.151-0.239 1.151-0.718 0-0.25-0.089-0.436-0.268-0.557-0.179-0.129-0.458-0.193-0.838-0.193h-1.643v1.468h1.598z">
            </path>
            <path fill="#fb8c00" style="fill: var(--color3, #fb8c00)"
                d="M60.052 21.333h1.397v5.722h-1.397v-5.722zM60.756 20.39c-0.253 0-0.466-0.075-0.637-0.225-0.171-0.157-0.257-0.35-0.257-0.579s0.086-0.418 0.257-0.568c0.171-0.157 0.384-0.236 0.637-0.236s0.466 0.075 0.637 0.225c0.171 0.143 0.257 0.325 0.257 0.546 0 0.236-0.086 0.436-0.257 0.6-0.164 0.157-0.376 0.236-0.637 0.236z">
            </path>
            <path fill="#fb8c00" style="fill: var(--color3, #fb8c00)"
                d="M66.147 27.13c-0.618 0-1.174-0.125-1.665-0.375s-0.876-0.597-1.151-1.039c-0.276-0.45-0.414-0.957-0.414-1.522s0.138-1.068 0.414-1.511c0.276-0.443 0.656-0.789 1.14-1.039 0.492-0.25 1.051-0.375 1.677-0.375 0.589 0 1.103 0.114 1.542 0.343 0.447 0.229 0.782 0.557 1.006 0.986l-1.073 0.6c-0.171-0.264-0.387-0.461-0.648-0.589-0.253-0.136-0.533-0.204-0.838-0.204-0.522 0-0.954 0.164-1.297 0.493-0.343 0.321-0.514 0.754-0.514 1.297s0.168 0.979 0.503 1.307c0.343 0.322 0.779 0.482 1.308 0.482 0.305 0 0.585-0.064 0.838-0.193 0.261-0.136 0.477-0.336 0.648-0.6l1.073 0.6c-0.231 0.429-0.57 0.761-1.017 0.997-0.44 0.229-0.95 0.343-1.531 0.343z">
            </path>
            <path fill="#fb8c00" style="fill: var(--color3, #fb8c00)"
                d="M77.552 21.269c0.753 0 1.349 0.211 1.789 0.632 0.44 0.414 0.659 1.039 0.659 1.875v3.279h-1.397v-3.108c0-0.5-0.115-0.875-0.347-1.125-0.231-0.257-0.562-0.386-0.995-0.386-0.469 0-0.845 0.15-1.128 0.45-0.283 0.293-0.425 0.714-0.425 1.265v2.904h-1.397v-3.108c0-0.5-0.115-0.875-0.346-1.125-0.232-0.257-0.563-0.386-0.995-0.386-0.477 0-0.856 0.146-1.139 0.439-0.276 0.293-0.414 0.718-0.414 1.275v2.904h-1.397v-5.722h1.33v0.729c0.223-0.257 0.503-0.454 0.838-0.589s0.707-0.204 1.118-0.204c0.447 0 0.842 0.082 1.185 0.246 0.35 0.157 0.625 0.393 0.827 0.707 0.246-0.3 0.562-0.532 0.95-0.697 0.387-0.171 0.816-0.257 1.286-0.257z">
            </path>
            <path fill="#342410" style="fill: var(--color4, #342410)"
                d="M20.903 0.010c0.154-0.001 0.154-0.001 0.31-0.003 0.186-0.002 0.371-0.004 0.557-0.007 0.643-0.004 1.151 0.027 1.659 0.421 0.095 0.091 0.189 0.183 0.282 0.276 0.306 0.297 0.613 0.583 0.953 0.848 0.38 0.301 0.738 0.617 1.093 0.943 0.095 0.087 0.095 0.087 0.192 0.175 0.136 0.124 0.271 0.249 0.407 0.373 0.215 0.197 0.431 0.395 0.646 0.592 0.535 0.489 1.069 0.979 1.604 1.469 0.453 0.415 0.906 0.83 1.359 1.244 0.211 0.193 0.422 0.387 0.633 0.581 0.131 0.12 0.262 0.239 0.392 0.359 0.058 0.053 0.115 0.106 0.175 0.161 0.356 0.325 0.725 0.632 1.108 0.932 0.322 0.258 0.322 0.258 0.465 0.405 0 0.058 0 0.117 0 0.177 0.055 0.022 0.111 0.043 0.168 0.066 0.257 0.13 0.428 0.283 0.634 0.475 0.078 0.072 0.157 0.145 0.238 0.22 0.081 0.076 0.162 0.152 0.246 0.23 0.506 0.471 1.011 0.934 1.561 1.362 0.351 0.278 0.532 0.452 0.591 0.879-0.045 0.329-0.108 0.495-0.333 0.752-0.306 0.175-0.556 0.203-0.914 0.214-0.149 0.005-0.149 0.005-0.301 0.010-0.155 0.004-0.155 0.004-0.313 0.008s-0.157 0.005-0.317 0.010c-0.258 0.008-0.516 0.016-0.774 0.023 0.001 0.048 0.001 0.096 0.002 0.146 0.012 1.191 0.025 2.383 0.036 3.574 0.006 0.576 0.012 1.152 0.018 1.729 0.013 1.21 0.024 2.42 0.033 3.63 0.005 0.596 0.012 1.192 0.021 1.789 0.005 0.349 0.009 0.698 0.012 1.046 0.002 0.159 0.004 0.318 0.008 0.478 0.004 0.216 0.006 0.432 0.008 0.648 0.002 0.062 0.004 0.124 0.006 0.188-0.001 0.439-0.134 0.685-0.433 1.025-0.174 0.108-0.174 0.108-0.35 0.165-0.065 0.022-0.13 0.044-0.198 0.066-0.067 0.021-0.135 0.041-0.204 0.062-0.099 0.033-0.099 0.033-0.199 0.067-0.458 0.148-0.893 0.217-1.377 0.259 0.015 0.051 0.031 0.102 0.047 0.154 0.158 0.63 0.072 1.303-0.241 1.882-0.426 0.476-0.916 0.711-1.552 0.885-0.085 0.024-0.085 0.024-0.171 0.049-0.94 0.173-2.093 0.122-2.932-0.314-0.356-0.31-0.508-0.638-0.527-1.084 0.038-0.294 0.085-0.436 0.236-0.686-0.052 0.023-0.104 0.047-0.157 0.071-0.42 0.182-0.767 0.295-1.231 0.338-0.245 0.029-0.245 0.029-0.455 0.122-0.142 0.21-0.214 0.414-0.294 0.649-0.288 0.726-1.013 1.149-1.742 1.475-1.067 0.401-2.263 0.527-3.369 0.181-0.475-0.2-0.792-0.478-1.080-0.872-0.159-0.412-0.308-0.864-0.11-1.28 0.049-0.076 0.049-0.076 0.098-0.153-0.064 0.029-0.128 0.058-0.194 0.089-0.287 0.020-0.572 0.036-0.86 0.047-0.088 0.004-0.175 0.008-0.265 0.011-0.187 0.008-0.373 0.016-0.56 0.023-0.278 0.011-0.556 0.024-0.834 0.036-0.919 0.040-1.839 0.068-2.759 0.075-0.123 0.002-0.123 0.002-0.249 0.004-0.747 0.001-1.379-0.161-2.082-0.395-0.114-0.038-0.229-0.075-0.346-0.114-0.176-0.059-0.176-0.059-0.356-0.119-1.070-0.356-2.146-0.674-3.24-0.965-0.094-0.025-0.188-0.050-0.285-0.076-0.191-0.051-0.382-0.102-0.573-0.151-0.515-0.14-0.954-0.266-1.364-0.588-0.192-0.344-0.218-0.63-0.217-1.013-0-0.115-0.001-0.231-0.001-0.349 0.001-0.127 0.001-0.254 0.002-0.381 0-0.134 0-0.269-0-0.403-0-0.364 0.001-0.729 0.002-1.093 0.001-0.381 0.001-0.762 0.002-1.143 0.001-0.721 0.002-1.442 0.004-2.163 0.002-0.821 0.003-1.642 0.004-2.463 0.002-1.689 0.005-3.377 0.010-5.066-0.106-0.006-0.212-0.011-0.322-0.017-0.141-0.008-0.282-0.015-0.423-0.023-0.070-0.004-0.14-0.007-0.212-0.011-1.231-0.068-1.231-0.068-1.766-0.397-0.224-0.31-0.259-0.502-0.234-0.868 0.076-0.311 0.264-0.433 0.531-0.631 0.13-0.117 0.26-0.235 0.388-0.354 0.101-0.092 0.101-0.092 0.204-0.186 0.139-0.127 0.277-0.255 0.414-0.384 0.645-0.575 1.327-1.104 2.028-1.621 0.34-0.256 0.664-0.527 0.989-0.798 0.247-0.201 0.502-0.391 0.76-0.58 0.529-0.391 1.025-0.808 1.523-1.232 0.222-0.189 0.448-0.374 0.678-0.555 1.057-0.825 1.057-0.825 2.006-1.748 0.111-0.12 0.111-0.12 0.224-0.243 0.064 0 0.128 0 0.194 0 0-0.058 0-0.117 0-0.177 0.136-0.128 0.136-0.128 0.327-0.277 0.069-0.053 0.137-0.106 0.208-0.161 0.153-0.115 0.308-0.228 0.466-0.337 0.447-0.309 0.821-0.62 1.171-1.020 0.718-0.803 1.372-1.45 2.544-1.591 0.694-0.063 1.391-0.061 2.088-0.051 0.357 0.003 0.713-0.005 1.070-0.011 0.679-0.011 1.357-0.010 2.036-0.005 0.349 0.002 0.698-0.001 1.047-0.005z">
            </path>
            <path fill="#00ad6f" style="fill: var(--color5, #00ad6f)"
                d="M22.314 4.175c0.211 0.094 0.353 0.2 0.524 0.349 0.269 0.231 0.545 0.444 0.835 0.651 0.576 0.427 1.085 0.91 1.598 1.4 0.139 0.132 0.279 0.265 0.419 0.397 0.126 0.119 0.252 0.239 0.378 0.359 0.206 0.187 0.414 0.363 0.631 0.538 0.372 0.301 0.723 0.617 1.070 0.942 0.062 0.058 0.124 0.115 0.187 0.174 0.129 0.121 0.259 0.241 0.388 0.362 0.196 0.183 0.392 0.366 0.589 0.549 0.127 0.118 0.253 0.236 0.38 0.355 0.058 0.054 0.115 0.107 0.175 0.163 0.335 0.314 0.652 0.633 0.95 0.978 0.204 0.213 0.204 0.213 0.51 0.383 0.509 0.33 0.844 0.663 0.976 1.242 0.1 0.86 0.077 1.724 0.056 2.588-0.008 0.381-0.008 0.762-0.010 1.143-0.004 0.72-0.014 1.44-0.026 2.16-0.014 0.82-0.020 1.64-0.026 2.461-0.013 1.686-0.034 3.372-0.061 5.057-0.179 0.044-0.359 0.088-0.538 0.131-0.15 0.036-0.15 0.036-0.303 0.074-0.282 0.057-0.282 0.057-0.657 0.057 0.059-0.442 0.201-0.822 0.374-1.233 0.32-0.767 0.392-1.383 0.392-2.203 0-0.189 0.002-0.377 0.004-0.566 0.004-0.974-0.121-1.864-0.454-2.789-0.036-0.1-0.036-0.1-0.073-0.203-0.303-0.807-0.754-1.512-1.284-2.209-0.242-0.327-0.398-0.673-0.55-1.042-0.579-1.398-1.461-2.63-2.901-3.371-1.517-0.612-2.857-0.683-4.492-0.524-0.189-0.576-0.216-1.13-0.23-1.729-0.017-0.092-0.033-0.184-0.050-0.279-0.179-0.133-0.179-0.133-0.374-0.175 0-0.086 0-0.173 0-0.262-0.507 0.070-0.872 0.147-1.255 0.488-0.177 0.146-0.368 0.249-0.57 0.363-0.618 0.379-0.969 0.885-1.137 1.557-0.054 0.34-0.043 0.678-0.040 1.021 0.004 1.144-0.117 1.722-0.929 2.593-0.814 1.198-1.133 2.714-1.142 4.114-0.001 0.088-0.002 0.175-0.003 0.266-0.003 0.289-0.005 0.578-0.008 0.867-0.002 0.201-0.004 0.402-0.006 0.602-0.005 0.528-0.010 1.055-0.014 1.583-0.005 0.539-0.010 1.078-0.015 1.617-0.010 1.057-0.020 2.113-0.029 3.17-0.055 0.002-0.109 0.004-0.165 0.007-1.131 0.046-2.261 0.097-3.391 0.168-0.030-2.008-0.055-4.016-0.075-6.023-0.010-1.004-0.024-2.007-0.041-3.010-0.012-0.692-0.021-1.384-0.027-2.077-0.004-0.411-0.010-0.823-0.019-1.234-0.009-0.387-0.013-0.774-0.015-1.161-0.001-0.141-0.004-0.283-0.008-0.424-0.021-0.712-0.002-1.232 0.502-1.813 0.141-0.138 0.285-0.273 0.432-0.405 0.087-0.088 0.174-0.177 0.261-0.266 0.384-0.356 0.765-0.679 1.206-0.971 0.489-0.357 0.93-0.77 1.382-1.166 0.291-0.254 0.592-0.497 0.895-0.738 0.102-0.082 0.205-0.163 0.307-0.245 0.056-0.045 0.112-0.089 0.169-0.135 0.227-0.181 0.454-0.363 0.681-0.545 0.134-0.107 0.268-0.214 0.402-0.321 0.070-0.057 0.141-0.114 0.213-0.173 0.059-0.047 0.117-0.094 0.178-0.143 0.171-0.155 0.322-0.313 0.476-0.481 0.507-0.547 1.065-1.048 1.615-1.557 0.111-0.103 0.222-0.206 0.333-0.31 0.203-0.189 0.407-0.378 0.61-0.566 0.157-0.146 0.313-0.293 0.465-0.443 0.165-0.143 0.165-0.143 0.354-0.138z">
            </path>
            <path fill="#f0952e" style="fill: var(--color6, #f0952e)"
                d="M20.070 11.13c0.022 0.143 0.022 0.143 0.044 0.288 0.276 1.679 0.933 3.315 2.313 4.498 0.090 0.049 0.18 0.099 0.273 0.15 0.108 0.060 0.108 0.060 0.218 0.121 0 0.060 0 0.119 0 0.181 0.123 0.001 0.123 0.001 0.249 0.001 0.312 0.002 0.623 0.007 0.934 0.013 0.198 0.003 0.397 0.004 0.595 0.005 1.58 0.032 2.914 0.514 4.018 1.571 1.66 1.849 2.017 4.124 1.864 6.448-0.087 0.614-0.273 1.193-0.543 1.76-0.348 0.764-0.635 1.763-0.341 2.575 0.061 0.429 0.077 0.717-0.209 1.073-0.663 0.451-1.165 0.505-1.97 0.497-0.098 0.001-0.196 0.002-0.297 0.003-0.094-0-0.188-0.001-0.284-0.001-0.085-0-0.17-0.001-0.258-0.001-0.269-0.042-0.36-0.103-0.517-0.306 0.019-0.27 0.058-0.474 0.199-0.713 0.111-0.221 0.123-0.382 0.129-0.625 0.004-0.124 0.004-0.124 0.009-0.25 0.003-0.128 0.003-0.128 0.007-0.259 0.026-1.022 0.026-1.022 0.245-1.405-0.174 0.046-0.174 0.046-0.352 0.092-2.2 0.573-2.2 0.573-3.183 0.54 0-0.179 0-0.358 0-0.542-0.191 0.015-0.191 0.015-0.393 0.090-0.489 0.669-0.42 1.407-0.36 2.172 0.019 0.444 0.016 0.726-0.302 1.077-0.733 0.666-1.593 1.080-2.634 1.12-0.591-0.019-1.125-0.185-1.614-0.485 0-0.060 0-0.119 0-0.181-0.065 0-0.13 0-0.196 0 0.044-0.5 0.176-0.769 0.491-1.174 0.301-0.458 0.472-0.808 0.393-1.355-0.176-0.589-0.41-1.153-0.694-1.704-0.524-1.106-0.516-2.313-0.51-3.497 0.001-0.226 0-0.452-0.001-0.678 0-0.145 0-0.29 0.001-0.435-0-0.067-0.001-0.134-0.001-0.202 0.004-0.369 0.053-0.646 0.224-0.98 0.041-0.18 0.080-0.361 0.117-0.542 0.215-0.884 0.68-1.688 1.356-2.348 0.066 0.037 0.131 0.074 0.199 0.112 0.872 0.45 1.663 0.548 2.649 0.61 0.032-0.179 0.065-0.358 0.098-0.542-0.1-0.009-0.2-0.018-0.303-0.027-0.899-0.149-1.871-0.678-2.42-1.358-0.864-1.185-1.352-2.447-1.045-3.882 0.284-0.701 0.698-1.092 1.416-1.434 0.192-0.073 0.192-0.073 0.388-0.073z">
            </path>
            <path fill="#fb8c00" style="fill: var(--color3, #fb8c00)"
                d="M4.18 13.217c0.167 0.015 0.167 0.015 0.337 0.030 0.424 0.038 0.848 0.075 1.271 0.112 0.181 0.016 0.362 0.032 0.544 0.048 1.367 0.121 2.735 0.233 4.103 0.343 0 4.874 0 9.749 0 14.77-1.891-0.523-1.891-0.523-2.765-0.876-0.532-0.203-1.074-0.378-1.614-0.559-0.596-0.2-1.19-0.406-1.784-0.612-0.083-3.127-0.1-6.253-0.098-9.382 0-0.096 0-0.192 0-0.29 0.001-1.195 0.003-2.39 0.005-3.586z">
            </path>
            <path fill="#f6cd88" style="fill: var(--color7, #f6cd88)"
                d="M26.335 22.983c0.111 0.012 0.111 0.012 0.224 0.024 0.769 0.163 1.34 0.75 1.905 1.228 0.144 0.118 0.295 0.228 0.447 0.336 0.068 0.053 0.136 0.106 0.206 0.161 0 0.061 0 0.122 0 0.184 0.148 0.046 0.148 0.046 0.298 0.092 0.298 0.399 0.298 0.399 0.298 0.645 0.066 0 0.131 0 0.199 0-0.041 0.161-0.041 0.161-0.083 0.326-0.036 0.143-0.073 0.285-0.109 0.428-0.027 0.106-0.027 0.106-0.055 0.215-0.288 1.031-0.288 1.031-0.15 2.070 0.062 0.437 0.078 0.731-0.211 1.093-0.671 0.46-1.179 0.515-1.994 0.506-0.099 0.001-0.198 0.002-0.3 0.003-0.095-0-0.19-0.001-0.288-0.001-0.086-0-0.172-0.001-0.261-0.001-0.272-0.043-0.364-0.105-0.523-0.312 0.019-0.275 0.059-0.484 0.202-0.727 0.112-0.225 0.125-0.39 0.131-0.637 0.004-0.126 0.004-0.126 0.009-0.254 0.003-0.131 0.003-0.131 0.007-0.264 0.026-1.042 0.026-1.042 0.248-1.433-0.118 0.031-0.235 0.062-0.356 0.094-2.227 0.584-2.227 0.584-3.221 0.55 0-0.182 0-0.365 0-0.552-0.193 0.015-0.193 0.015-0.398 0.092-0.495 0.683-0.425 1.434-0.365 2.215 0.020 0.453 0.016 0.741-0.306 1.098-0.741 0.679-1.612 1.101-2.665 1.142-0.598-0.020-1.138-0.189-1.634-0.495 0-0.061 0-0.122 0-0.184-0.066 0-0.131 0-0.199 0 0.044-0.51 0.179-0.784 0.497-1.197 0.248-0.378 0.409-0.675 0.404-1.122 0.045-0.623 0.613-1.067 1.049-1.503 0.181-0.182 0.355-0.37 0.528-0.558 0.475-0.498 0.475-0.498 0.702-0.685 0.066 0 0.131 0 0.199 0 0-0.061 0-0.122 0-0.184 0.195-0.162 0.389-0.312 0.596-0.46 0.062-0.045 0.125-0.089 0.189-0.135 1.394-0.984 2.941-2.003 4.78-1.798z">
            </path>
            <path fill="#fb8c00" style="fill: var(--color3, #fb8c00)"
                d="M22.59 1.491c0.644 0.333 1.166 0.844 1.683 1.313 0.295 0.267 0.598 0.503 0.929 0.736 0.164 0.158 0.317 0.321 0.471 0.487 0.182 0.172 0.366 0.321 0.568 0.474 0.486 0.37 0.931 0.772 1.381 1.176 0.381 0.34 0.772 0.662 1.182 0.973 0.283 0.219 0.542 0.458 0.804 0.696 0.195 0.168 0.393 0.324 0.599 0.48 0.53 0.406 1.015 0.849 1.507 1.29 0.396 0.353 0.8 0.689 1.227 1.013 0.372 0.291 0.718 0.605 1.067 0.917 0.075 0.067 0.15 0.133 0.227 0.202 0.183 0.162 0.365 0.324 0.547 0.487-0.257 0.252-0.257 0.252-0.559 0.29-0.101-0.001-0.202-0.001-0.306-0.002-0.101 0.001-0.201 0.001-0.305 0.002-0.311-0.037-0.447-0.097-0.669-0.29 0-0.056 0-0.113 0-0.171-0.064 0-0.128 0-0.194 0-0.12-0.123-0.239-0.246-0.354-0.373-0.189-0.203-0.4-0.383-0.613-0.566-0.072-0.064-0.143-0.128-0.217-0.194-0.078-0.070-0.156-0.139-0.236-0.211-0.111-0.1-0.111-0.1-0.225-0.201-0.179-0.166-0.179-0.166-0.386-0.247 0-0.056 0-0.113 0-0.171-0.054-0.021-0.109-0.042-0.165-0.064-0.26-0.125-0.461-0.275-0.682-0.448-0.116-0.090-0.116-0.090-0.234-0.181-0.177-0.16-0.177-0.16-0.177-0.331-0.085-0.034-0.085-0.034-0.172-0.068-0.226-0.109-0.375-0.224-0.557-0.385-0.062-0.055-0.125-0.111-0.189-0.168s-0.128-0.115-0.195-0.175c-0.064-0.057-0.128-0.113-0.195-0.172-0.328-0.292-0.629-0.589-0.918-0.911-0.104-0.085-0.211-0.167-0.321-0.245-0.415-0.312-0.796-0.651-1.179-0.992-0.418-0.372-0.835-0.735-1.29-1.071-0.187-0.149-0.363-0.303-0.54-0.462-0.090-0.081-0.090-0.081-0.182-0.164-0.12-0.109-0.239-0.218-0.358-0.327-0.302-0.274-0.539-0.474-0.969-0.58-0.394 0.258-0.687 0.535-0.992 0.875-0.43 0.474-0.905 0.866-1.427 1.259-0.129 0.099-0.258 0.199-0.387 0.299-0.062 0.048-0.125 0.096-0.189 0.145-0.224 0.174-0.444 0.351-0.664 0.528-0.328 0.261-0.661 0.513-1.004 0.758-0.686 0.49-1.349 1.004-2.014 1.515-0.25 0.192-0.5 0.384-0.75 0.576-0.060 0.046-0.12 0.093-0.182 0.14-0.362 0.277-0.731 0.546-1.106 0.81-0.345 0.245-0.624 0.493-0.9 0.796-0.36 0.351-0.804 0.629-1.223 0.922-0.274 0.2-0.548 0.401-0.822 0.602-0.421 0.288-0.697 0.457-1.241 0.438-0.128-0.003-0.128-0.003-0.259-0.007-0.064-0.003-0.129-0.006-0.195-0.009 0.215-0.38 0.52-0.638 0.86-0.93 0.192-0.169 0.368-0.344 0.543-0.527 0.274-0.28 0.565-0.52 0.883-0.759 0.683-0.52 1.369-1.046 1.937-1.665 0.145-0.146 0.301-0.264 0.47-0.388 0.399-0.298 0.743-0.631 1.095-0.971 0.481-0.464 0.968-0.87 1.53-1.257 0.206-0.145 0.387-0.294 0.569-0.462 0.264-0.241 0.544-0.451 0.841-0.662 0.958-0.684 1.822-1.417 2.65-2.22 1.434-1.381 1.434-1.381 2.17-1.174z">
            </path>
            <path fill="#fb8c00" style="fill: var(--color3, #fb8c00)"
                d="M14.801 0.702c0.083 0 0.166 0.001 0.252 0.001 0.269 0.002 0.538 0.007 0.807 0.013 0.184 0.002 0.368 0.004 0.552 0.006 0.52 0.006 1.039 0.017 1.558 0.029 0.098 0.002 0.098 0.002 0.199 0.004 0.343 0.007 0.686 0.017 1.029 0.031 0.075 0.003 0.151 0.006 0.229 0.009 0.495 0.026 0.963 0.116 1.443 0.236-0.134 0.424-0.349 0.658-0.666 0.966-0.069 0.067-0.069 0.067-0.139 0.136-0.32 0.309-0.65 0.603-0.988 0.89-0.168 0.148-0.324 0.303-0.48 0.463-1.296 1.31-1.296 1.31-1.948 1.384-0.072-0-0.143-0.001-0.217-0.001-0.081-0-0.163-0-0.247-0-0.087-0.001-0.175-0.002-0.265-0.004-0.092-0.001-0.184-0.001-0.279-0.002-0.667-0.007-1.332-0.037-1.998-0.075-1.299-0.067-2.602-0.041-3.902-0.033 0.307-0.367 0.611-0.713 0.976-1.024 0.428-0.375 0.828-0.771 1.228-1.175 0.43-0.434 0.856-0.845 1.357-1.199 0.197-0.141 0.197-0.141 0.372-0.377 0.38-0.313 0.651-0.289 1.129-0.276z">
            </path>
            <path fill="#fb8c00" style="fill: var(--color3, #fb8c00)"
                d="M5.735 8.357c0.084 0.001 0.168 0.003 0.255 0.004 0.283 0.006 0.566 0.014 0.85 0.023 0.153 0.004 0.153 0.004 0.308 0.009 0.769 0.022 1.538 0.050 2.306 0.080 0.231 0.009 0.463 0.017 0.694 0.026 0.559 0.021 1.119 0.042 1.678 0.063-0.165 0.343-0.395 0.576-0.675 0.836-0.044 0.041-0.088 0.082-0.133 0.125-0.131 0.123-0.262 0.245-0.393 0.368-0.215 0.205-0.429 0.411-0.643 0.618-0.213 0.205-0.425 0.411-0.638 0.616-0.072 0.070-0.143 0.139-0.218 0.211-1.125 1.083-1.125 1.083-1.509 1.187-0.683-0.026-1.332-0.141-1.999-0.273-0.807-0.155-1.617-0.241-2.435-0.319-0.607-0.059-1.197-0.141-1.793-0.269 0.323-0.655 0.969-1.121 1.535-1.586 0.357-0.301 0.703-0.615 1.049-0.927 0.053-0.048 0.106-0.095 0.161-0.144 0.047-0.042 0.094-0.085 0.143-0.129 0.053-0.045 0.105-0.090 0.159-0.136 0.065-0.063 0.13-0.127 0.198-0.192 0.372-0.229 0.667-0.204 1.099-0.19z">
            </path>
            <path fill="#fb8c00" style="fill: var(--color3, #fb8c00)"
                d="M14.145 4.956c0.248 0.009 0.496 0.019 0.745 0.028 0.602 0.022 1.204 0.046 1.806 0.069-0.452 0.527-0.93 1.021-1.427 1.508-0.135 0.133-0.27 0.266-0.404 0.4-0.085 0.084-0.17 0.167-0.258 0.254-0.077 0.076-0.155 0.153-0.235 0.231-0.192 0.166-0.192 0.166-0.378 0.166-0.026 0.079-0.026 0.079-0.052 0.16-0.196 0.301-0.449 0.452-0.786 0.571-0.324 0.020-0.634-0.022-0.955-0.065-0.813-0.089-1.618-0.141-2.436-0.156-0.104-0.002-0.207-0.004-0.314-0.006-0.316-0.005-0.631-0.009-0.947-0.014-0.219-0.004-0.438-0.007-0.657-0.011-0.528-0.009-1.056-0.017-1.584-0.024 0.176-0.382 0.443-0.621 0.757-0.897 0.055-0.049 0.109-0.097 0.166-0.147 0.158-0.14 0.316-0.279 0.475-0.418 0.071-0.063 0.143-0.126 0.216-0.191 0.376-0.328 0.766-0.635 1.165-0.935 0.209-0.152 0.209-0.152 0.405-0.341 0.322-0.217 0.58-0.242 0.959-0.252 0.071-0.003 0.143-0.006 0.216-0.008 1.175-0.034 2.352 0.030 3.526 0.077z">
            </path>
            <path fill="#00ad6f" style="fill: var(--color5, #00ad6f)"
                d="M15.050 18.087c0.084 0 0.168 0 0.255 0-0.012 0.059-0.024 0.117-0.036 0.177-0.18 1.021-0.164 2.043-0.169 3.077-0.002 0.203-0.003 0.405-0.005 0.608-0.004 0.53-0.008 1.059-0.011 1.589-0.003 0.542-0.008 1.084-0.012 1.626-0.008 1.061-0.015 2.121-0.022 3.182-0.052 0.002-0.105 0.005-0.159 0.007-0.242 0.011-0.483 0.022-0.725 0.034-0.123 0.006-0.123 0.006-0.25 0.011-0.698 0.033-1.394 0.076-2.091 0.124 0.028-0.905 0.056-1.809 0.085-2.741 0.056 0 0.112 0 0.17 0 0-0.058 0-0.117 0-0.177 0.056 0 0.112 0 0.17 0 0.028-0.204 0.056-0.409 0.085-0.619 0.056 0 0.112 0 0.17 0 0-0.088 0-0.175 0-0.265 0.056 0 0.112 0 0.17 0 0.028-0.175 0.056-0.35 0.085-0.531 0.056 0 0.112 0 0.17 0 0.013-0.112 0.013-0.112 0.027-0.227 0.058-0.304 0.058-0.304 0.191-0.625 0.144-0.299 0.144-0.299 0.122-0.652 0.056 0 0.112 0 0.17 0 0.066-0.264 0.12-0.529 0.17-0.796 0.056 0 0.112 0 0.17 0 0-0.087 0-0.175 0-0.265 0.056 0 0.112 0 0.17 0 0.011-0.061 0.021-0.122 0.032-0.185 0.079-0.381 0.199-0.747 0.313-1.119 0.085-0.285 0.085-0.285 0.123-0.577 0.042-0.241 0.042-0.241 0.201-0.435 0.266-0.368 0.336-0.778 0.435-1.221z">
            </path>
            <path fill="#c47422" style="fill: var(--color8, #c47422)"
                d="M19.266 11.13c0.029 0.085 0.058 0.17 0.088 0.258-0.085 0.148-0.085 0.148-0.209 0.301-0.363 0.451-0.371 0.863-0.319 1.419 0.208 1.040 0.557 1.985 1.057 2.925 0.025 0.060 0.050 0.119 0.076 0.181 0.125 0.205 0.227 0.246 0.452 0.335 0.103 0.046 0.103 0.046 0.208 0.092 0.070 0.030 0.139 0.060 0.211 0.091 0.070 0.030 0.141 0.061 0.213 0.092 0.053 0.023 0.106 0.046 0.161 0.069 0 0.057 0 0.114 0 0.172 0.081 0.025 0.081 0.025 0.164 0.050 0.071 0.022 0.142 0.045 0.216 0.068 0.071 0.022 0.141 0.044 0.214 0.067 0.199 0.073 0.199 0.073 0.463 0.245-0.682 0.75-1.578 0.966-2.577 1.028-0.314 0.029-0.478 0.065-0.711 0.278-0.156 0.257-0.276 0.506-0.384 0.786-0.037 0.092-0.073 0.184-0.111 0.279-0.23 0.738-0.197 1.494-0.197 2.259-0.001 0.112-0.002 0.224-0.003 0.34-0.001 0.868 0.029 1.738 0.46 2.515 0.062 0.044 0.124 0.089 0.187 0.134 0.165 0.124 0.165 0.124 0.231 0.398 0.007 0.080 0.015 0.16 0.022 0.242 0.087 0 0.174 0 0.264 0-0.044 0.378-0.171 0.559-0.435 0.833-0.094 0.099-0.094 0.099-0.19 0.2-0.114 0.115-0.228 0.23-0.344 0.343-0.021-0.066-0.043-0.131-0.065-0.199-0.162-0.488-0.333-0.961-0.558-1.424-0.47-1.053-0.463-2.203-0.457-3.331 0.001-0.215 0-0.43-0.001-0.645 0-0.138 0-0.276 0.001-0.414-0-0.064-0.001-0.127-0.001-0.193 0.003-0.351 0.048-0.616 0.201-0.933 0.037-0.172 0.072-0.344 0.105-0.516 0.193-0.842 0.61-1.608 1.217-2.237 0.059 0.035 0.118 0.070 0.179 0.107 0.782 0.429 1.492 0.522 2.376 0.581 0.029-0.17 0.058-0.341 0.088-0.516-0.090-0.008-0.18-0.017-0.272-0.026-0.807-0.142-1.679-0.646-2.171-1.293-0.775-1.128-1.213-2.331-0.938-3.697 0.211-0.553 0.531-1.006 1.090-1.263z">
            </path>
            <path fill="#fb8c00" style="fill: var(--color3, #fb8c00)"
                d="M4.174 13.217c1.357 0.117 2.714 0.234 4.112 0.355 1.075 0.090 1.075 0.090 2.149 0.178 0 0.44 0 0.879 0 1.332-1.41-0.082-2.806-0.164-4.205-0.355-0.648-0.059-1.295-0.117-1.962-0.178 0 2.315 0 4.63 0 7.016-0.031 0-0.062 0-0.093 0 0-2.755 0-5.51 0-8.348z">
            </path>
            <path fill="#00ad6f" style="fill: var(--color5, #00ad6f)"
                d="M15.026 18.087c0.092 0 0.184 0 0.278 0-0.013 0.062-0.026 0.125-0.039 0.189-0.164 0.871-0.177 1.724-0.181 2.606-0.001 0.159-0.003 0.317-0.005 0.476-0.004 0.414-0.007 0.828-0.010 1.242-0.005 0.664-0.011 1.328-0.017 1.993-0.002 0.231-0.004 0.461-0.005 0.692-0.001 0.142-0.002 0.284-0.004 0.427-0 0.095-0 0.095-0.001 0.192-0.004 0.416-0.046 0.816-0.108 1.228-0.031 0-0.061 0-0.093 0-0.031-1.090-0.061-2.181-0.093-3.304-0.138-0.043-0.138-0.043-0.278-0.087 0-0.115 0-0.23 0-0.348-0.153-0.029-0.306-0.057-0.464-0.087 0-0.057 0-0.115 0-0.174-0.446 0.133-0.446 0.133-0.742 0.435-0.061 0-0.122 0-0.186 0 0.031 0.115 0.061 0.23 0.093 0.348-0.122 0-0.245 0-0.371 0-0.031 0.143-0.061 0.287-0.093 0.435-0.061 0-0.122 0-0.186 0 0-0.086 0-0.172 0-0.261 0.061 0 0.122 0 0.186 0 0.010-0.074 0.019-0.147 0.029-0.223 0.064-0.299 0.064-0.299 0.209-0.614 0.158-0.294 0.158-0.294 0.133-0.641 0.061 0 0.122 0 0.186 0 0.072-0.259 0.131-0.52 0.185-0.783 0.061 0 0.122 0 0.186 0 0-0.086 0-0.172 0-0.261 0.061 0 0.122 0 0.186 0 0.017-0.090 0.017-0.090 0.035-0.182 0.086-0.375 0.217-0.735 0.342-1.1 0.093-0.281 0.093-0.281 0.134-0.568 0.046-0.237 0.046-0.237 0.22-0.427 0.291-0.361 0.368-0.765 0.475-1.201zM13.727 23.304c0.092 0 0.184 0 0.278 0 0 0.057 0 0.115 0 0.174-0.092 0-0.184 0-0.278 0 0-0.057 0-0.115 0-0.174z">
            </path>
            <path fill="#00ad6f" style="fill: var(--color5, #00ad6f)"
                d="M19.191 6.957c0.095 0.056 0.19 0.112 0.287 0.17-0.289 0.476-0.611 0.813-1.085 1.152-0.171 0.116-0.171 0.116-0.256 0.293-0.063 0-0.126 0-0.192 0-0.032 0.112-0.063 0.225-0.096 0.34-0.063 0-0.126 0-0.192 0-0.103 0.226-0.201 0.449-0.287 0.68-0.149 0.136-0.149 0.136-0.329 0.271-0.059 0.045-0.118 0.090-0.179 0.136-0.162 0.103-0.162 0.103-0.354 0.103 0 0.056 0 0.112 0 0.17-0.19 0.042-0.19 0.042-0.383 0.085 0 0.056 0 0.112 0 0.17-0.063 0-0.126 0-0.192 0-0.032 0.084-0.063 0.168-0.096 0.255-0.061 0.012-0.123 0.025-0.186 0.037-0.065 0.016-0.13 0.031-0.197 0.048-0.029 0.051-0.057 0.103-0.086 0.155-0.12 0.211-0.248 0.315-0.452 0.466-0.068 0.051-0.136 0.102-0.206 0.155s-0.141 0.105-0.213 0.159c-0.136 0.104-0.272 0.209-0.407 0.314-0.063 0.049-0.126 0.097-0.191 0.147-0.137 0.109-0.267 0.225-0.396 0.341-0.156 0.133-0.156 0.133-0.347 0.133-0.032 0.084-0.063 0.168-0.096 0.255-0.194 0.077-0.389 0.124-0.593 0.175-0.194 0.067-0.194 0.067-0.245 0.258-0.012 0.080-0.012 0.080-0.024 0.162-0.032 0-0.063 0-0.096 0-0.032 0.337-0.063 0.673-0.096 1.020-0.032 0-0.063 0-0.096 0-0.148-1.479-0.148-1.479 0.371-2.041 0.16-0.145 0.324-0.287 0.491-0.425 0.080-0.075 0.161-0.15 0.244-0.228 0.394-0.366 0.794-0.685 1.258-0.978 0.501-0.347 0.951-0.75 1.414-1.136 0.298-0.247 0.606-0.484 0.916-0.719 0.105-0.079 0.209-0.159 0.314-0.238 0.086-0.065 0.086-0.065 0.173-0.131 1.132-0.808 1.132-0.808 2.099-1.756z">
            </path>
            <path fill="#e4a64e" style="fill: var(--color9, #e4a64e)"
                d="M19.372 26.435c0.034 0 0.069 0 0.104 0 0.012 0.667-0.020 1.315-0.098 1.978-0.107 0.963-0.169 1.924-0.215 2.891-1.149-0.185-1.149-0.185-1.563-0.507 0-0.067 0-0.134 0-0.203-0.069 0-0.138 0-0.208 0 0.046-0.562 0.187-0.864 0.521-1.319 0.262-0.418 0.429-0.755 0.436-1.249 0.042-0.666 0.566-1.134 1.023-1.591z">
            </path>
            <path fill="#dea450" style="fill: var(--color10, #dea450)"
                d="M27.799 26.494c0.053 1.374 0.053 1.374-0.215 1.895-0.108 0.252-0.078 0.499-0.061 0.756-0.221 0.017-0.443 0.032-0.665 0.047-0.123 0.009-0.247 0.017-0.374 0.026-0.343-0.005-0.343-0.005-0.596-0.093-0.161-0.116-0.161-0.116-0.135-0.315 0.112-0.208 0.112-0.208 0.254-0.337 0.156-0.166 0.173-0.288 0.182-0.47 0.004-0.062 0.008-0.124 0.012-0.188 0.003-0.064 0.006-0.129 0.009-0.195 0.036-0.769 0.036-0.769 0.345-1.058-0.137-0.022-0.274-0.045-0.415-0.068 1.069-0.079 1.069-0.079 1.658 0z">
            </path>
            <path fill="#00ad6f" style="fill: var(--color5, #00ad6f)"
                d="M15.163 18.087c0.047 0 0.094 0 0.142 0-0.013 0.181-0.027 0.362-0.041 0.543-0.008 0.101-0.015 0.202-0.023 0.306-0.030 0.281-0.030 0.281-0.078 0.443-0.057 0.228-0.062 0.407-0.066 0.657-0.002 0.089-0.004 0.178-0.006 0.27-0.002 0.139-0.002 0.139-0.004 0.28s-0.003 0.141-0.005 0.284c-0.004 0.231-0.008 0.463-0.012 0.694-0.031 0-0.062 0-0.094 0-0.016-0.115-0.031-0.23-0.047-0.348-0.094 0.043-0.094 0.043-0.189 0.087 0 0.057 0 0.115 0 0.174-0.031 0-0.062 0-0.094 0-0.071-0.339-0.020-0.567 0.041-0.902 0.053-0.29 0.099-0.559 0.125-0.861 0.023-0.237 0.023-0.237 0.111-0.427 0.148-0.361 0.187-0.765 0.242-1.201z">
            </path>
            <path fill="#00ad6f" style="fill: var(--color5, #00ad6f)"
                d="M30.957 25.043c0.149 0.095 0.149 0.095 0.199 0.285 0.011 0.326 0.020 0.652 0.026 0.979 0.005 0.18 0.014 0.359 0.024 0.539 0.033 0.031 0.066 0.063 0.099 0.095-0.079 0.032-0.157 0.064-0.236 0.095-0.044 0.018-0.088 0.035-0.133 0.053-0.128 0.042-0.128 0.042-0.327 0.042 0.032-0.487 0.109-0.91 0.202-1.364 0.014-0.070 0.028-0.14 0.042-0.212 0.034-0.171 0.069-0.341 0.104-0.512z">
            </path>
            <path fill="#e09e46" style="fill: var(--color11, #e09e46)"
                d="M19.475 26.435c0.007 0.574 0.006 1.125-0.068 1.689-0.068 0.099-0.068 0.099-0.242 0.106-0.055-0.002-0.11-0.004-0.166-0.006-0.022 0.098-0.045 0.197-0.068 0.298-0.022 0-0.045 0-0.068 0-0.070-0.343-0.099-0.637-0.068-0.994 0.458-1.093 0.458-1.093 0.681-1.093z">
            </path>
            <path fill="#00ad6f" style="fill: var(--color5, #00ad6f)"
                d="M12.452 25.802c0.027 0.161 0.050 0.323 0.070 0.486-0.023 0.027-0.046 0.053-0.070 0.081-0.184 0-0.367 0-0.557 0 0.023 0.454 0.046 0.909 0.070 1.377-0.046 0.027-0.092 0.053-0.139 0.081 0-0.615 0-1.229 0-1.863 0.046 0 0.092 0 0.139 0 0-0.053 0-0.107 0-0.162 0.186-0.108 0.29-0.054 0.487 0z">
            </path>
            <path fill="#00ad6f" style="fill: var(--color5, #00ad6f)"
                d="M31.049 25.043c0.189 0.095 0.189 0.095 0.251 0.285 0.009 0.253 0.003 0.505 0 0.759-0.021-0.094-0.041-0.188-0.063-0.285-0.124 0.010-0.124 0.010-0.251 0.095-0.072 0.219-0.072 0.219-0.11 0.48-0.015 0.087-0.030 0.174-0.046 0.264-0.011 0.067-0.021 0.135-0.032 0.204 0.166 0 0.332 0 0.503 0-0.021 0.063-0.041 0.125-0.063 0.19-0.144 0.039-0.144 0.039-0.318 0.059-0.058 0.007-0.115 0.014-0.175 0.021-0.067 0.007-0.067 0.007-0.135 0.014 0.040-0.487 0.138-0.91 0.255-1.364 0.018-0.070 0.035-0.14 0.054-0.212 0.043-0.171 0.087-0.341 0.131-0.512z">
            </path>
            <path fill="#c17120" style="fill: var(--color12, #c17120)"
                d="M21.983 18.087c0.092 0.096 0.184 0.193 0.278 0.292-0.943 0.365-1.712 0.44-2.783 0.389 0.046-0.161 0.092-0.321 0.139-0.487 0.781 0 1.561 0 2.365 0 0-0.064 0-0.128 0-0.195z">
            </path>
            <path fill="#00ad6f" style="fill: var(--color5, #00ad6f)"
                d="M15.043 18.087c0.086 0 0.172 0 0.261 0-0.025 0.189-0.050 0.378-0.076 0.567-0.014 0.105-0.028 0.211-0.043 0.319-0.049 0.259-0.11 0.428-0.229 0.656-0.033 0.181-0.063 0.362-0.087 0.544-0.086-0.060-0.172-0.12-0.261-0.181 0.056-0.25 0.112-0.499 0.168-0.749 0.016-0.070 0.032-0.141 0.048-0.214 0.015-0.068 0.031-0.137 0.047-0.207 0.021-0.094 0.021-0.094 0.043-0.19 0.042-0.182 0.085-0.364 0.129-0.546z">
            </path>
            <path fill="#00ad6f" style="fill: var(--color5, #00ad6f)"
                d="M13.681 22.261c0.077 0.053 0.153 0.106 0.232 0.161-0.053 0.060-0.105 0.119-0.159 0.181-0.288 0.391-0.335 0.834-0.42 1.264-0.153 0.026-0.306 0.053-0.464 0.080-0.038 0.132-0.077 0.265-0.116 0.401-0.077 0-0.153 0-0.232 0 0-0.079 0-0.159 0-0.241 0.077 0 0.153 0 0.232 0 0.018-0.102 0.018-0.102 0.036-0.206 0.080-0.276 0.080-0.276 0.261-0.567 0.197-0.271 0.197-0.271 0.167-0.592 0.077 0 0.153 0 0.232 0 0.017-0.050 0.034-0.099 0.051-0.15 0.065-0.171 0.065-0.171 0.181-0.331z">
            </path>
            <path fill="#c97825" style="fill: var(--color13, #c97825)"
                d="M19.42 11.13c0.019 0.086 0.038 0.172 0.058 0.261-0.062 0.172-0.062 0.172-0.156 0.353-0.030 0.060-0.060 0.12-0.091 0.182-0.105 0.167-0.197 0.234-0.333 0.334-0.038 0.086-0.077 0.172-0.116 0.261 0.013-0.488 0.094-0.726 0.309-1.089 0.103-0.137 0.203-0.219 0.329-0.303z">
            </path>
            <path fill="#d07a23" style="fill: var(--color14, #d07a23)"
                d="M19.067 18.783c0.595 0.019 1.19 0.038 1.802 0.058 0 0.019 0 0.038 0 0.058-0.105 0.005-0.21 0.010-0.319 0.015-0.139 0.008-0.278 0.016-0.416 0.025-0.104 0.005-0.104 0.005-0.21 0.009-0.36 0.023-0.541 0.047-0.8 0.206-0.050 0.050-0.101 0.1-0.153 0.151-0.063 0.057-0.125 0.115-0.19 0.174 0.058-0.25 0.151-0.451 0.285-0.696z">
            </path>
            <path fill="#261d0d" style="fill: var(--color15, #261d0d)"
                d="M16.535 5.565c0.053 0.026 0.106 0.051 0.161 0.077-0.696 0.67-1.391 1.34-2.087 2.010 0-0.232 0-0.232 0.177-0.429 0.081-0.078 0.162-0.155 0.245-0.232 0.043-0.041 0.085-0.082 0.13-0.124 0.137-0.13 0.275-0.26 0.412-0.39 0.093-0.088 0.186-0.177 0.278-0.265 0.228-0.217 0.456-0.433 0.685-0.648z">
            </path>
            <path fill="#c66d34" style="fill: var(--color16, #c66d34)"
                d="M10.236 11.826c0.066 0.016 0.131 0.032 0.199 0.049-0.328 0.178-0.656 0.355-0.994 0.538 0.438 0 0.616-0.013 0.994-0.098-0.137 0.098-0.137 0.098-0.398 0.196-0.334 0.018-0.659 0.011-0.994 0 0.211-0.189 0.45-0.33 0.764-0.48 0.080-0.039 0.161-0.077 0.243-0.117 0.061-0.029 0.122-0.058 0.185-0.088z">
            </path>
            <path fill="#2a1f0e" style="fill: var(--color17, #2a1f0e)"
                d="M26.435 4.174c0.258 0.122 0.441 0.249 0.637 0.461 0.050 0.053 0.099 0.106 0.15 0.16s0.102 0.11 0.154 0.167c0.366 0.395 0.736 0.764 1.146 1.109-0.030 0.063-0.060 0.125-0.091 0.19-1.405-1.328-1.405-1.328-1.996-1.992 0-0.031 0-0.063 0-0.095z">
            </path>
            <path fill="#00ad6f" style="fill: var(--color5, #00ad6f)"
                d="M30.707 25.739c0.232 0.043 0.232 0.043 0.478 0.155 0.090 0.28 0.090 0.28 0.119 0.541-0.197 0-0.394 0-0.598 0-0.183-0.237-0.066-0.441 0-0.696z">
            </path>
            <path fill="#b86b1d" style="fill: var(--color18, #b86b1d)"
                d="M21.983 18.087c0.092 0.115 0.184 0.23 0.278 0.348-0.519 0.236-0.789 0.348-1.391 0.348 0-0.077 0-0.153 0-0.232 0.092 0 0.184 0 0.278 0 0-0.077 0-0.153 0-0.232 0.275 0 0.551 0 0.835 0 0-0.077 0-0.153 0-0.232z">
            </path>
            <path fill="#c16b35" style="fill: var(--color19, #c16b35)"
                d="M33.391 10.435c0.522 0.392 0.969 0.807 1.391 1.292-0.106 0.033-0.212 0.066-0.321 0.099-0.038-0.068-0.075-0.135-0.114-0.205-0.232-0.326-0.498-0.568-0.804-0.833-0.153-0.154-0.153-0.154-0.153-0.353z">
            </path>
            <path fill="#251507" style="fill: var(--color20, #251507)"
                d="M24.348 12.522c0.506 0.077 0.919 0.265 1.391 0.545 0 0.045 0 0.090 0 0.136-0.54 0.081-0.92-0.201-1.391-0.545 0-0.045 0-0.090 0-0.136z">
            </path>
            <path fill="#00ad6f" style="fill: var(--color5, #00ad6f)"
                d="M30.672 26.435c0.021 0.138 0.042 0.275 0.063 0.417 0.282-0.069 0.282-0.069 0.569-0.139-0.021 0.092-0.042 0.184-0.063 0.278-0.145 0.058-0.145 0.058-0.32 0.087-0.058 0.010-0.116 0.021-0.176 0.032-0.067 0.010-0.067 0.010-0.136 0.021 0.021-0.23 0.042-0.459 0.063-0.696z">
            </path>
            <path fill="#3a2f22" style="fill: var(--color21, #3a2f22)"
                d="M34.087 10.435c0.66 0.148 0.976 0.373 1.391 0.696-0.522 0-0.522 0-0.989-0.236-0.402-0.261-0.402-0.261-0.402-0.46z">
            </path>
            <path fill="#00ad6f" style="fill: var(--color5, #00ad6f)"
                d="M11.826 26.435c0.184 0.038 0.367 0.077 0.557 0.116 0.046 0.153 0.092 0.306 0.139 0.464-0.23 0.038-0.459 0.077-0.696 0.116 0-0.23 0-0.459 0-0.696z">
            </path>
            <path fill="#00ad6f" style="fill: var(--color5, #00ad6f)"
                d="M14.191 23.652c0.138 0.046 0.275 0.092 0.417 0.139-0.138 0.207-0.138 0.207-0.278 0.417 0.092 0.046 0.184 0.092 0.278 0.139-0.459-0.046-0.918-0.092-1.391-0.139 0-0.046 0-0.092 0-0.139 0.275 0 0.551 0 0.835 0 0.046-0.138 0.092-0.275 0.139-0.417z">
            </path>
            <path fill="#db8226" style="fill: var(--color22, #db8226)"
                d="M19.081 18.783c0.131 0.023 0.262 0.046 0.398 0.070-0.123 0.102-0.246 0.204-0.369 0.306-0.117 0.102-0.223 0.211-0.327 0.32 0.050-0.259 0.111-0.469 0.298-0.696z">
            </path>
            <path fill="#d09443" style="fill: var(--color23, #d09443)"
                d="M26.783 26.435c0.196 0.13 0.196 0.13 0.348 0.309-0.152 0.213-0.152 0.213-0.348 0.387-0.115-0.051-0.23-0.102-0.348-0.155 0.057-0.202 0.143-0.359 0.348-0.541z">
            </path>
            <path fill="#b66d20" style="fill: var(--color24, #b66d20)"
                d="M21.963 17.391c0.174 0.267 0.174 0.267 0.298 0.558-0.299 0.174-0.384 0.194-0.696 0 0-0.123 0-0.245 0-0.372 0.18-0.128 0.18-0.128 0.398-0.186z">
            </path>
            <path fill="#00ad6f" style="fill: var(--color5, #00ad6f)"
                d="M47.227 6.463v8.843h-3.067v-3.259h-2.833v3.259h-3.067v-8.843h3.067v3.133h2.833v-3.133h3.067z"></path>
            <path fill="#00ad6f" style="fill: var(--color5, #00ad6f)"
                d="M53.11 6.261c0.884 0 1.663 0.173 2.339 0.518 0.676 0.337 1.2 0.834 1.572 1.491 0.381 0.649 0.572 1.423 0.572 2.324v4.712h-3.067v-1.781h-2.885v1.781h-3.015v-4.712c0-0.901 0.186-1.676 0.559-2.324 0.381-0.657 0.91-1.154 1.585-1.491 0.676-0.345 1.455-0.518 2.339-0.518zM54.527 11.276v-0.935c0-0.547-0.134-0.96-0.403-1.238-0.26-0.286-0.606-0.43-1.040-0.43s-0.784 0.143-1.053 0.43c-0.26 0.278-0.39 0.691-0.39 1.238v0.935h2.885z">
            </path>
            <path fill="#00ad6f" style="fill: var(--color5, #00ad6f)"
                d="M63.376 6.463c0.84 0 1.572 0.135 2.196 0.404s1.105 0.657 1.442 1.162 0.507 1.095 0.507 1.769c0 0.674-0.169 1.263-0.507 1.769s-0.819 0.893-1.442 1.162c-0.624 0.27-1.356 0.404-2.196 0.404h-1.313v2.173h-3.067v-8.843h4.379zM63.181 10.834c0.416 0 0.728-0.088 0.936-0.265 0.208-0.185 0.312-0.442 0.312-0.771s-0.104-0.581-0.312-0.758c-0.208-0.185-0.52-0.278-0.936-0.278h-1.118v2.072h1.118z">
            </path>
            <path fill="#00ad6f" style="fill: var(--color5, #00ad6f)"
                d="M72.907 6.463c0.84 0 1.572 0.135 2.196 0.404s1.104 0.657 1.442 1.162 0.507 1.095 0.507 1.769c0 0.674-0.169 1.263-0.507 1.769s-0.819 0.893-1.442 1.162c-0.624 0.27-1.356 0.404-2.196 0.404h-1.313v2.173h-3.067v-8.843h4.38zM72.712 10.834c0.416 0 0.728-0.088 0.936-0.265 0.208-0.185 0.312-0.442 0.312-0.771s-0.104-0.581-0.312-0.758c-0.208-0.185-0.52-0.278-0.936-0.278h-1.117v2.072h1.117z">
            </path>
            <path fill="#00ad6f" style="fill: var(--color5, #00ad6f)"
                d="M86.957 6.463v5.925c0 0.91-0.191 1.689-0.572 2.337s-0.922 1.137-1.624 1.465c-0.702 0.337-1.529 0.505-2.482 0.505-0.823 0-1.572-0.097-2.248-0.291-0.667-0.185-1.247-0.446-1.741-0.783l1.118-2.11c0.424 0.261 0.87 0.463 1.338 0.606 0.477 0.135 0.94 0.202 1.391 0.202 0.623 0 1.070-0.139 1.338-0.417 0.277-0.286 0.415-0.737 0.415-1.352v-0.253c-0.58 0.64-1.356 0.96-2.326 0.96-1.144 0-2.019-0.312-2.625-0.935-0.598-0.632-0.897-1.545-0.897-2.741v-3.12h3.067v2.906c0 0.497 0.109 0.867 0.325 1.112 0.225 0.244 0.568 0.366 1.027 0.366 0.433 0 0.779-0.122 1.039-0.366 0.26-0.253 0.39-0.657 0.39-1.213v-2.804h3.067z">
            </path>
        </symbol>
        <symbol id="icon-search" viewBox="0 0 32 32">
            <path
                d="M24.428 22.273l6.526 6.526-2.155 2.155-6.526-6.526c-2.346 1.877-5.322 3-8.559 3-7.57 0-13.714-6.144-13.714-13.714s6.144-13.714 13.714-13.714c7.57 0 13.714 6.144 13.714 13.714 0 3.237-1.123 6.212-3 8.559zM21.371 21.143c1.863-1.92 3.010-4.54 3.010-7.428 0-5.893-4.773-10.667-10.667-10.667s-10.667 4.773-10.667 10.667c0 5.893 4.773 10.667 10.667 10.667 2.889 0 5.508-1.147 7.428-3.010l0.228-0.228z">
            </path>
        </symbol>
        <symbol id="icon-pets-age" viewBox="0 0 30 32">
            <path
                d="M10.91 1.481v2.963h8.889v-2.963h2.963v2.963h5.926c0.818 0 1.481 0.663 1.481 1.482v23.704c0 0.818-0.663 1.482-1.481 1.482h-26.667c-0.818 0-1.481-0.663-1.481-1.482v-23.704c0-0.818 0.663-1.482 1.481-1.482h5.926v-2.963h2.963zM27.206 16.296h-23.704v11.852h23.704v-11.852zM9.428 19.259v2.963h-2.963v-2.963h2.963zM16.836 19.259v2.963h-2.963v-2.963h2.963zM24.243 19.259v2.963h-2.963v-2.963h2.963zM7.947 7.407h-4.444v5.926h23.704v-5.926h-4.444v2.963h-2.963v-2.963h-8.889v2.963h-2.963v-2.963z">
            </path>
        </symbol>
        <symbol id="icon-pets-gender" viewBox="0 0 28 32">
            <path
                d="M11.957 23.078c-3.989-0.48-7.065-3.566-7.065-7.301 0-4.068 3.65-7.366 8.152-7.366s8.152 3.298 8.152 7.366c0 3.735-3.077 6.821-7.065 7.301v2.029h5.435v1.964h-5.435v3.929h-2.174v-3.929h-5.435v-1.964h5.435v-2.029zM13.044 21.178c3.302 0 5.978-2.418 5.978-5.402s-2.677-5.402-5.978-5.402-5.978 2.418-5.978 5.402c0 2.983 2.677 5.402 5.978 5.402z">
            </path>
            <path
                d="M17.544 9.385l3.844-3.474h-4.985v-1.964h8.696v7.857h-2.174v-4.504l-3.844 3.474c1.048 1.239 1.67 2.788 1.67 4.468 0 4.068-3.65 7.366-8.152 7.366s-8.152-3.298-8.152-7.366 3.65-7.366 8.152-7.366c1.859 0 3.573 0.562 4.945 1.509zM12.599 20.644c3.302 0 5.978-2.418 5.978-5.402s-2.677-5.402-5.978-5.402c-3.302 0-5.978 2.418-5.978 5.402s2.677 5.402 5.978 5.402z">
            </path>
        </symbol>
        <symbol id="icon-pets-location" viewBox="0 0 27 32">
            <path
                d="M13.474 27.649l6.947-6.947c3.837-3.837 3.837-10.057 0-13.894s-10.057-3.837-13.894 0-3.837 10.057 0 13.894l6.947 6.947zM13.474 31.619l-8.932-8.932c-4.933-4.933-4.933-12.931 0-17.864s12.931-4.933 17.864 0c4.933 4.933 4.933 12.931 0 17.864l-8.932 8.932zM13.474 16.562c1.55 0 2.807-1.257 2.807-2.807s-1.257-2.807-2.807-2.807-2.807 1.257-2.807 2.807c0 1.55 1.257 2.807 2.807 2.807zM13.474 19.369c-3.101 0-5.614-2.514-5.614-5.614s2.513-5.614 5.614-5.614c3.101 0 5.614 2.513 5.614 5.614s-2.513 5.614-5.614 5.614z">
            </path>
        </symbol>
        <symbol id="icon-filters" viewBox="0 0 32 32">
            <path
                d="M6.673 25.6c0.659-1.864 2.437-3.2 4.527-3.2s3.868 1.336 4.527 3.2h16.273v3.2h-16.273c-0.659 1.864-2.437 3.2-4.527 3.2s-3.868-1.336-4.527-3.2h-6.673v-3.2h6.673zM16.273 14.4c0.659-1.864 2.437-3.2 4.527-3.2s3.868 1.336 4.527 3.2h6.673v3.2h-6.673c-0.659 1.864-2.437 3.2-4.527 3.2s-3.868-1.336-4.527-3.2h-16.273v-3.2h16.273zM6.673 3.2c0.659-1.864 2.437-3.2 4.527-3.2s3.868 1.336 4.527 3.2h16.273v3.2h-16.273c-0.659 1.864-2.437 3.2-4.527 3.2s-3.868-1.336-4.527-3.2h-6.673v-3.2h6.673zM11.2 6.4c0.884 0 1.6-0.716 1.6-1.6s-0.716-1.6-1.6-1.6c-0.884 0-1.6 0.716-1.6 1.6s0.716 1.6 1.6 1.6zM20.8 17.6c0.884 0 1.6-0.716 1.6-1.6s-0.716-1.6-1.6-1.6c-0.884 0-1.6 0.716-1.6 1.6s0.716 1.6 1.6 1.6zM11.2 28.8c0.884 0 1.6-0.716 1.6-1.6s-0.716-1.6-1.6-1.6c-0.884 0-1.6 0.716-1.6 1.6s0.716 1.6 1.6 1.6z">
            </path>
        </symbol>
        <symbol id="icon-pets-pet" viewBox="0 0 32 32">
            <path
                d="M16 23.333c3.24 0 5.867-2.627 5.867-5.867h-2.933c0 1.62-1.313 2.933-2.933 2.933s-2.933-1.313-2.933-2.933h-2.933c0 3.24 2.627 5.867 5.867 5.867zM7.933 1.333c-3.645 0-6.6 2.955-6.6 6.6 0 1.991 0.882 3.774 2.272 4.983-0.521 1.42-0.806 2.953-0.806 4.55 0 7.29 5.91 13.2 13.2 13.2s13.2-5.91 13.2-13.2c0-1.597-0.284-3.13-0.806-4.55 1.391-1.209 2.272-2.992 2.272-4.983 0-3.645-2.955-6.6-6.6-6.6-2.385 0-4.473 1.265-5.632 3.158-0.79-0.147-1.604-0.224-2.435-0.224s-1.645 0.077-2.435 0.224c-1.159-1.893-3.247-3.158-5.632-3.158zM4.267 7.933c0-2.025 1.642-3.667 3.667-3.667 1.584 0 2.938 1.006 3.449 2.418l0.466 1.288 1.317-0.377c0.898-0.258 1.849-0.396 2.834-0.396s1.936 0.138 2.834 0.396l1.317 0.377 0.466-1.288c0.511-1.413 1.865-2.418 3.449-2.418 2.025 0 3.667 1.642 3.667 3.667 0 1.368-0.749 2.564-1.866 3.195l-1.193 0.674 0.592 1.236c0.641 1.339 1.001 2.839 1.001 4.428 0 5.67-4.596 10.267-10.267 10.267s-10.267-4.596-10.267-10.267c0-1.588 0.36-3.089 1.001-4.428l0.592-1.236-1.193-0.674c-1.117-0.631-1.866-1.827-1.866-3.195z">
            </path>
        </symbol>
        <symbol id="icon-pets-sterilization" viewBox="0 0 32 32">
            <path
                d="M31.509 9.111l-2.155 2.155-3.232-3.232-3.233 3.232 5.388 5.388-2.155 2.155-1.078-1.078-9.698 9.697h-8.62l-3.232 3.233-2.155-2.155 3.233-3.232v-8.62l9.697-9.697-1.078-1.077 2.155-2.155 5.387 5.387 3.232-3.232-3.232-3.232 2.155-2.155 8.62 8.62zM22.889 15.576l-6.465-6.465-2.155 2.155 3.232 3.233-2.155 2.155-3.232-3.233-2.155 2.155 3.232 3.232-2.155 2.155-3.232-3.232-0.185 0.185v6.465h6.465l8.805-8.805z">
            </path>
        </symbol>
        <symbol id="icon-pets-down" viewBox="0 0 48 32">
            <path d="M23.999 20.294l18.149-18.149 5.185 5.185-23.335 23.335-23.335-23.335 5.185-5.185 18.149 18.149z">
            </path>
        </symbol>
        <symbol id="icon-pets-up" viewBox="0 0 48 32">
            <path d="M23.999 11.703l-18.149 18.149-5.185-5.185 23.335-23.335 23.335 23.335-5.185 5.185-18.149-18.149z">
            </path>
        </symbol>
        <symbol id="icon-pets-heart" viewBox="0 0 40 32">
            <path
                d="M31.694 4.071c2.409 2.414 3.314 5.753 2.717 8.86 0.937 0.264 1.822 0.763 2.561 1.496 2.312 2.295 2.312 6.017 0 8.313l-8.972 8.907-4.977-4.941-4.905 4.917-13.965-13.987c-3.466-3.88-3.336-9.84 0.389-13.565 3.729-3.729 9.698-3.855 13.578-0.377 3.869-3.473 9.848-3.358 13.574 0.377zM21.349 16.765c-1.015 1.007-1.015 2.63 0 3.637l6.651 6.603 6.651-6.603c1.015-1.007 1.015-2.63 0-3.637-1.028-1.020-2.704-1.020-3.736 0.004l-2.919 2.889-2.916-2.892c-1.028-1.020-2.704-1.020-3.732 0zM6.871 6.4c-2.454 2.454-2.577 6.384-0.316 8.979l11.562 11.581 2.568-2.573-1.657-1.646c-2.312-2.296-2.312-6.017 0-8.313s6.061-2.296 8.374 0l0.597 0.593 0.599-0.593c0.699-0.694 1.53-1.179 2.413-1.453 0.684-2.252 0.128-4.796-1.649-6.577-2.469-2.474-6.455-2.575-9.042-0.252l-2.199 1.974-2.2-1.972c-2.594-2.325-6.573-2.223-9.050 0.253z">
            </path>
        </symbol>
        <symbol id="icon-backPage" viewBox="0 0 30 32">
            <path
                d="M7.309 14.191h22.025v3.619h-22.025l9.706 9.706-2.559 2.559-14.075-14.075 14.075-14.075 2.559 2.559-9.706 9.706z">
            </path>
        </symbol>
        <symbol id="icon-mail-icon" viewBox="0 0 36 32">
            <path
                d="M3 1h30c0.921 0 1.667 0.746 1.667 1.667v26.667c0 0.92-0.746 1.667-1.667 1.667h-30c-0.92 0-1.667-0.746-1.667-1.667v-26.667c0-0.92 0.746-1.667 1.667-1.667zM31.333 8.063l-13.214 11.833-13.453-11.87v19.64h26.667v-19.603zM5.519 4.333l12.584 11.103 12.399-11.103h-24.983z">
            </path>
        </symbol>
        <symbol id="icon-password-icon" viewBox="0 0 36 32">
            <path
                d="M26.493 26.81c-2.52 1.598-5.509 2.524-8.715 2.524-7.988 0-14.634-5.748-16.028-13.333 0.647-3.522 2.426-6.648 4.946-8.986l-4.632-4.632 2.095-2.095 29.332 29.332-2.095 2.095-4.904-4.904zM8.794 9.11c-1.969 1.793-3.404 4.174-4.019 6.89 1.359 6.003 6.729 10.37 13.004 10.37 2.369 0 4.61-0.623 6.554-1.721l-3.005-3.005c-1.028 0.648-2.245 1.022-3.549 1.022-3.682 0-6.667-2.985-6.667-6.667 0-1.305 0.375-2.522 1.022-3.549l-3.34-3.34zM19.132 19.449l-4.802-4.802c-0.165 0.419-0.255 0.876-0.255 1.354 0 2.046 1.658 3.704 3.704 3.704 0.478 0 0.934-0.090 1.353-0.255zM30.825 22.803l-2.12-2.12c0.972-1.385 1.688-2.968 2.077-4.684-1.359-6.003-6.729-10.37-13.004-10.37-1.253 0-2.47 0.174-3.626 0.501l-2.338-2.338c1.847-0.727 3.859-1.126 5.964-1.126 7.988 0 14.634 5.748 16.028 13.333-0.463 2.518-1.504 4.833-2.981 6.803zM17.368 9.346c0.136-0.008 0.273-0.012 0.411-0.012 3.682 0 6.667 2.985 6.667 6.667 0 0.138-0.004 0.275-0.012 0.411l-7.065-7.065z">
            </path>
        </symbol>
        <symbol id="icon-password-open-icon" viewBox="0 0 40 32">
            <path
                d="M20.001 1c8.987 0 16.464 6.466 18.031 15-1.567 8.534-9.044 15-18.031 15s-16.464-6.466-18.031-15c1.567-8.534 9.044-15 18.031-15zM20.001 27.667c7.059 0 13.1-4.913 14.629-11.667-1.529-6.753-7.57-11.667-14.629-11.667s-13.1 4.913-14.629 11.667c1.529 6.753 7.57 11.667 14.629 11.667zM20.001 23.5c-4.142 0-7.5-3.358-7.5-7.5s3.358-7.5 7.5-7.5c4.142 0 7.5 3.358 7.5 7.5s-3.358 7.5-7.5 7.5zM20.001 20.167c2.301 0 4.167-1.865 4.167-4.167s-1.865-4.167-4.167-4.167c-2.301 0-4.167 1.866-4.167 4.167s1.866 4.167 4.167 4.167z">
            </path>
        </symbol>
        <symbol id="icon-register-user" viewBox="0 0 24 32">
            <path
                d="M0.562 30.877c0-6.201 5.027-11.228 11.228-11.228s11.228 5.027 11.228 11.228h-2.807c0-4.651-3.77-8.421-8.421-8.421s-8.421 3.77-8.421 8.421h-2.807zM11.79 18.245c-4.653 0-8.421-3.768-8.421-8.421s3.768-8.421 8.421-8.421c4.653 0 8.421 3.768 8.421 8.421s-3.768 8.421-8.421 8.421zM11.79 15.438c3.102 0 5.614-2.512 5.614-5.614s-2.512-5.614-5.614-5.614c-3.102 0-5.614 2.512-5.614 5.614s2.512 5.614 5.614 5.614z">
            </path>
        </symbol>
        <symbol id="icon-logout" viewBox="0 0 30 32">
            <path fill="currentColor"
                d="M25.184 24.889h-2.963v2.963h-17.778v-23.704h17.778v2.963h2.963v-4.444c0-0.818-0.663-1.482-1.481-1.482h-20.741c-0.818 0-1.481 0.663-1.481 1.482v26.667c0 0.818 0.663 1.481 1.481 1.481h20.741c0.818 0 1.481-0.663 1.481-1.481v-4.444zM22.221 14.519h-10.37v2.963h10.37v4.444l7.407-5.926-7.407-5.926v4.444z">
            </path>
        </symbol>
        <symbol id="icon-donatePage" viewBox="0 0 36 32">
            <path fill="#683e3d" style="fill: var(--color1, #683e3d)"
                d="M26.595 5.127c0.054-0.008 0.117-0.016 0.171-0.007 0.044 0.008 0.075 0.026 0.102 0.062 0.239 0.311 0.165 1.535 0.111 1.938 0.678 0.252 1.3 0.609 1.821 1.117 0.286-0.003 0.573 0.008 0.858 0.032 0.868 0.078 1.79 0.334 2.54 0.785 0.121 0.073 0.285 0.163 0.373 0.278 0.045 0.059 0.041 0.145 0.031 0.214-0.029 0.197-0.117 0.404-0.185 0.591-0.402 1.11-1.123 2.118-2.086 2.803-0.054 0.631-0.131 1.196-0.383 1.785 0.328 0.325 0.809 0.783 0.849 1.271 0.004 0.050 0.005 0.114-0.029 0.153-0.068-0.006-0.119-0.148-0.148-0.206-0.192-0.382-0.469-0.746-0.815-1.001-0.15 0.207-0.321 0.384-0.533 0.529 0.323 0.397 0.78 1.004 0.789 1.541 0.001 0.047-0.003 0.070-0.035 0.104-0.015-0.003-0.032-0-0.044-0.009-0.059-0.045-0.164-0.35-0.205-0.434-0.074-0.15-0.156-0.297-0.246-0.439-0.141-0.225-0.306-0.424-0.483-0.621-0.268 0.104-0.537 0.187-0.822 0.23-0.18 0.027-0.588 0.018-0.723 0.079-0.011 0.015-0.028 0.028-0.033 0.046-0.016 0.062 0.484 0.71 0.558 0.814 0.999 1.398 2.233 3.345 2.586 5.033 0.111 0.534 0.134 1.040 0.080 1.582 0.455-0.125 0.884-0.348 1.225-0.677 0.849-0.818 1.076-2.125 0.633-3.206-0.236-0.577-0.7-1.147-0.683-1.795 0.007-0.285 0.114-0.547 0.323-0.744 0.21-0.198 0.488-0.276 0.771-0.266 0.348 0.013 0.644 0.183 0.875 0.437 0.684 0.75 0.898 2.095 0.855 3.081-0.057 1.298-0.563 2.655-1.541 3.541-0.921 0.835-1.918 1.034-3.123 0.974-0.803 0.687-1.41 0.894-2.413 1.126-0.98 0.227-2.019 0.327-3.021 0.206-0.249-0.030-0.548-0.070-0.763-0.211-0.131-0.086-0.168-0.156-0.202-0.306-0.104-0.014-0.208-0.034-0.312-0.053-0.2 0.205-0.402 0.331-0.687 0.379-0.541 0.091-0.956-0.063-1.39-0.37-0.071-0.001-0.136-0.008-0.205-0.027-0.233-0.066-0.447-0.216-0.562-0.432-0.104-0.195-0.115-0.426-0.047-0.634 0.104-0.316 0.336-0.49 0.622-0.63 0.237-0.974 0.175-2.004 0.226-2.998 0.029-0.505 0.070-1.009 0.123-1.512 0.129-1.303 0.31-2.463 0.744-3.704 0.127-0.363 0.257-0.755 0.504-1.056-0.235-0.147-0.47-0.298-0.692-0.464-1.069-0.797-1.939-1.954-2.136-3.295-0.28 0.033-0.544 0.1-0.815 0.171l0.003 2.264c0.001 0.504 0.047 1.063-0.060 1.557-0.050 0.233-0.144 0.428-0.313 0.597-0.414 0.414-0.968 0.409-1.516 0.405l-0.771-0.003c-0.761-0.007-1.524 0.002-2.285 0.005-0.015 0.433-0.010 0.868-0.014 1.301l-0.002 3.717c0 0.605 0.022 1.218-0.008 1.822 0.092-0.070 0.194-0.154 0.309-0.176 0.053-0.010 0.113-0.007 0.157 0.029 0.148 0.119 0.102 0.723 0.105 0.916 0.014-0.007 0.029-0.013 0.043-0.020 0.341-0.151 1.009-0.282 1.364-0.133 0.061 0.026 0.118 0.070 0.142 0.134 0.090 0.248-0.112 0.582-0.219 0.801 0.323 0.074 0.688 0.23 0.974 0.397 0.153 0.089 0.523 0.346 0.552 0.529 0.008 0.049-0.002 0.085-0.034 0.123-0.037 0.043-0.076 0.051-0.129 0.058-0.226 0.029-0.479 0.011-0.709 0.015-0.694 0.011-1.39-0.009-2.084 0.009-0.458 0.011-0.909 0.068-1.365 0.106-0.476 0.037-0.953 0.061-1.431 0.073-0.656 0.018-1.31-0.011-1.965-0.003-0.769 0.010-1.538 0.055-2.308 0.045-0.696-0.009-1.391-0.060-2.087-0.063-1.255-0.006-2.518 0.078-3.771 0.023-0.108-0.005-0.25-0.001-0.336-0.070-0.007-0.034-0.012-0.041-0-0.076 0.090-0.26 0.78-0.732 1.029-0.86-0.314-0.527-0.523-1.074-0.587-1.688-0.018-0.176-0.070-0.536 0.059-0.679 0.055-0.061 0.149-0.072 0.226-0.071 0.594 0.007 1.475 0.298 1.902 0.722 0.007-0.057 0.014-0.114 0.023-0.171 0.034-0.221 0.153-0.781 0.343-0.908 0.042-0.028 0.092-0.036 0.141-0.025 0.193 0.045 0.352 0.319 0.454 0.472 0.131-0.375 0.299-0.737 0.501-1.079 0.218-0.364 0.899-1.244 1.311-1.349 0.033 0.004 0.055 0.012 0.082 0.032 0.282 0.216 0.421 1.175 0.464 1.543 0.375-0.6 0.921-1.095 1.521-1.464 0.509-0.31 1.066-0.534 1.648-0.665 0.109-0.024 0.274-0.068 0.384-0.037 0.048 0.013 0.077 0.045 0.1 0.088 0.056 0.107 0.065 0.244 0.075 0.362 0.046 0.554-0.069 1.071-0.236 1.595 0.088-0.059 0.178-0.116 0.27-0.17 0.27-0.155 0.795-0.398 1.111-0.301 0.094 0.029 0.121 0.090 0.166 0.171l0.001-5.048c-0.882-0.032-1.774 0.006-2.658 0.015-0.536 0.005-1.044 0.017-1.452-0.389-0.172-0.171-0.307-0.397-0.371-0.631-0.107-0.392-0.067-1.325-0.069-1.765l-0.005-3.082c0.001-0.437-0.038-1.237 0.052-1.634 0.058-0.257 0.179-0.48 0.366-0.666 0.2-0.199 0.463-0.307 0.736-0.364 0.416-0.088 0.867-0.049 1.291-0.052l2.158-0.013c-0.028-0.393-0.052-0.886 0.193-1.224 0.119-0.163 0.315-0.259 0.512-0.282 0.246-0.028 0.536 0.053 0.725 0.215 0.326 0.278 0.335 0.874 0.359 1.266l3.254-0.009c0.471 0 0.908 0.058 1.255 0.411 0.504 0.513 0.426 1.244 0.423 1.903 0.373-0.097 0.743-0.057 1.112 0.038 0.099-0.16 0.205-0.315 0.318-0.465 0.315-0.423 0.691-0.737 1.059-1.105 0.311-0.311 0.587-0.645 0.92-0.936 1.152-1.007 2.676-1.666 4.185-1.885z">
            </path>
            <path fill="#fff" style="fill: var(--color2, #fff)"
                d="M13.762 7.5c0.887-0.008 1.775-0.009 2.662-0.003 0.417 0.001 0.986-0.046 1.384 0.033 0.197 0.039 0.367 0.125 0.512 0.264 0.247 0.236 0.352 0.533 0.358 0.87 0.007 0.412-0.003 0.825-0.004 1.237l0.004 2.584 0.007 1.316c0.001 0.267 0.022 0.558-0.019 0.822-0.029 0.192-0.117 0.37-0.252 0.51-0.162 0.164-0.349 0.231-0.574 0.27-0.495 0.087-1.248 0.041-1.764 0.040l-3.101 0.004c-0.892 0-1.784 0.005-2.676 0.015-0.368 0.005-1.119 0.063-1.444-0.006-0.165-0.035-0.309-0.134-0.43-0.248-0.312-0.294-0.394-0.674-0.407-1.088-0.041-1.283-0.020-2.575-0.020-3.858l0.001-1.122c0.001-0.255-0.014-0.542 0.033-0.792 0.032-0.171 0.129-0.341 0.248-0.465 0.155-0.163 0.39-0.277 0.611-0.319 0.238-0.045 0.495-0.033 0.736-0.033l0.957-0.001c1.059 0 2.118-0.010 3.177-0.031z">
            </path>
            <path fill="#683e3d" style="fill: var(--color1, #683e3d)"
                d="M10.904 7.925c1.43-0.018 2.862-0 4.293-0.006l1.527-0.004c0.272-0 0.557-0.018 0.827 0.014 0.169 0.020 0.303 0.058 0.432 0.174 0.165 0.148 0.256 0.335 0.268 0.555 0.022 0.413 0.007 0.834 0.007 1.248l0.001 2.457c-0.001 0.453 0.001 0.906 0.005 1.36 0.004 0.274 0.030 0.562 0.004 0.834-0.011 0.116-0.046 0.239-0.129 0.325-0.104 0.108-0.28 0.157-0.425 0.176-0.198 0.026-0.414 0.006-0.614 0.006l-7.206-0.008c-0.27 0.002-0.553 0.025-0.82-0.007-0.166-0.019-0.294-0.052-0.418-0.172-0.16-0.155-0.202-0.319-0.209-0.533-0.013-0.422-0.003-0.848-0.004-1.271l-0.003-2.529-0.001-1.331c-0-0.227-0.019-0.473 0.011-0.698 0.018-0.136 0.080-0.272 0.177-0.37 0.094-0.095 0.226-0.155 0.356-0.183 0.253-0.056 0.54-0.029 0.8-0.029 0.373 0.002 0.747-0 1.12-0.007z">
            </path>
            <path fill="#fff" style="fill: var(--color2, #fff)"
                d="M15.766 8.156l1.131-0.010c0.225-0.002 0.487-0.031 0.707 0.015 0.104 0.021 0.191 0.075 0.266 0.148 0.078 0.075 0.135 0.165 0.152 0.274 0.026 0.176 0.009 0.377 0.010 0.555l0.001 1.14-0.001 3.898c-0.001 0.193 0.018 0.449-0.137 0.591-0.034 0.031-0.068 0.042-0.113 0.047-0.258 0.025-0.522 0.012-0.781 0.011-0.37-0.002-0.74-0.001-1.11 0.003-1.643 0.001-3.285-0.006-4.927-0.021-0.39-0.001-0.781-0.004-1.171 0-0.214 0.002-0.446 0.028-0.658 0.004-0.103-0.012-0.241-0.046-0.318-0.119-0.085-0.080-0.119-0.185-0.124-0.298-0.016-0.372 0.003-0.749 0.002-1.122-0.006-0.918-0.007-1.836-0.001-2.754 0.002-0.378 0.001-0.757-0.005-1.135-0.004-0.259-0.025-0.527-0.001-0.785 0.010-0.114 0.036-0.207 0.118-0.292 0.091-0.094 0.175-0.113 0.299-0.127 0.25-0.028 0.514-0.013 0.766-0.013l5.898-0.010z">
            </path>
            <path fill="#683e3d" style="fill: var(--color1, #683e3d)"
                d="M15.838 9.425c0.109-0.014 0.201-0.017 0.303 0.030 0.131 0.060 0.219 0.172 0.269 0.305 0.101 0.272 0.057 0.614-0.061 0.874-0.086 0.188-0.199 0.325-0.394 0.399-0.076 0.015-0.141 0.017-0.216-0.004-0.138-0.040-0.239-0.12-0.307-0.247-0.126-0.234-0.125-0.571-0.042-0.821 0.077-0.232 0.228-0.426 0.449-0.535z">
            </path>
            <path fill="#fff" style="fill: var(--color2, #fff)"
                d="M15.915 9.635c0.033 0.004 0.067 0.008 0.099 0.017 0.087 0.024 0.163 0.102 0.203 0.18 0.091 0.174 0.070 0.43 0.006 0.612-0.063 0.176-0.155 0.286-0.321 0.369-0.051 0.006-0.094 0.009-0.142-0.013-0.096-0.044-0.159-0.136-0.191-0.234-0.070-0.216-0.039-0.51 0.070-0.708 0.067-0.122 0.144-0.184 0.276-0.223z">
            </path>
            <path fill="#683e3d" style="fill: var(--color1, #683e3d)"
                d="M16.244 11.96c0.018 0.002 0.052 0.003 0.071 0.010 0.038 0.016 0.061 0.041 0.070 0.082 0.009 0.045-0.008 0.063-0.033 0.096-0.177 0.086-0.462 0.037-0.659 0.045 0.004 0.172 0.005 0.344 0.004 0.515 0.085-0.007 0.172-0.012 0.258-0.013 0.1-0.001 0.212 0.020 0.285 0.091 0.004 0.037 0.012 0.030-0.010 0.054-0.111 0.121-0.383 0.089-0.535 0.087l-0 0.577c0.145-0.025 0.427-0.1 0.568-0.068 0.028 0.025 0.061 0.065 0.065 0.105s-0.009 0.073-0.040 0.101c-0.104 0.095-0.504 0.109-0.649 0.104-0.037-0.001-0.104-0.003-0.128-0.034-0.083-0.111 0.004-1.262 0.015-1.469l-0.021-0-0.039 0.080c-0.082 0.225-0.217 0.463-0.258 0.698-0.028 0.158 0.049 0.623-0.042 0.723-0.047 0.021-0.057 0.032-0.107 0.022-0.114-0.115-0.045-0.378-0.045-0.525 0.001-0.328-0.255-0.666-0.349-0.975-0.024-0.078-0.043-0.155-0.004-0.231 0.041-0.021 0.051-0.020 0.098-0.019 0.101 0.055 0.269 0.568 0.322 0.7 0.074-0.175 0.171-0.548 0.295-0.672 0.118-0.118 0.687-0.083 0.867-0.086z">
            </path>
            <path fill="#683e3d" style="fill: var(--color1, #683e3d)"
                d="M12.323 11.99c0.039-0.004 0.078-0.007 0.117-0.008 0.185-0.003 0.373 0.078 0.502 0.21 0.157 0.161 0.226 0.396 0.222 0.618-0.006 0.278-0.123 0.491-0.319 0.679-0.105 0.085-0.291 0.212-0.432 0.192-0.056-0.008-0.101-0.037-0.132-0.085-0.037-0.057-0.051-0.129-0.057-0.196-0.010-0.106-0.020-1.249 0.002-1.318 0.016-0.049 0.055-0.068 0.097-0.093z">
            </path>
            <path fill="#fff" style="fill: var(--color2, #fff)"
                d="M12.419 12.22c0.15-0.012 0.277-0.004 0.394 0.101 0.106 0.096 0.152 0.239 0.158 0.378 0.010 0.215-0.059 0.401-0.2 0.561-0.104 0.094-0.188 0.144-0.326 0.182-0.048-0.362-0.052-0.856-0.026-1.222z">
            </path>
            <path fill="#683e3d" style="fill: var(--color1, #683e3d)"
                d="M9.622 11.936c0.046-0.003 0.091-0.004 0.137-0.003 0.127 0.004 0.257 0.049 0.342 0.147 0.093 0.108 0.112 0.257 0.094 0.393-0.032 0.248-0.161 0.407-0.353 0.552 0.123 0.12 0.256 0.237 0.323 0.399 0.035 0.084 0.057 0.182 0.024 0.27-0.024 0.011-0.028 0.019-0.055 0.010-0.092-0.032-0.126-0.142-0.163-0.223-0.101-0.147-0.226-0.248-0.377-0.339 0.008 0.154 0.046 0.439-0.044 0.568-0.019 0.027-0.023 0.022-0.053 0.029-0.038-0.019-0.073-0.049-0.091-0.089-0.049-0.115-0.042-1.522 0.017-1.618 0.037-0.060 0.138-0.078 0.199-0.095z">
            </path>
            <path fill="#fff" style="fill: var(--color2, #fff)"
                d="M9.593 12.152c0.111-0.013 0.22-0.027 0.314 0.046 0.058 0.045 0.089 0.11 0.098 0.182 0.019 0.167-0.066 0.303-0.165 0.428-0.078 0.071-0.158 0.124-0.249 0.177-0.004-0.278-0.003-0.555 0.002-0.833z">
            </path>
            <path fill="#683e3d" style="fill: var(--color1, #683e3d)"
                d="M9.749 9.283c0.1-0.002 0.199 0.001 0.293 0.039 0.127 0.052 0.235 0.166 0.288 0.291 0.059 0.143 0.056 0.303-0.007 0.444-0.115 0.259-0.302 0.317-0.544 0.411-0.027 0.051-0.016 0.13-0.015 0.187 0.002 0.098 0.022 0.263-0.023 0.348-0.022 0.041-0.041 0.046-0.081 0.060-0.042-0.016-0.058-0.024-0.083-0.065-0.070-0.119-0.041-1.5 0.001-1.656 0.048-0.043 0.109-0.048 0.17-0.060z">
            </path>
            <path fill="#fff" style="fill: var(--color2, #fff)"
                d="M9.755 9.474c0.112-0.002 0.21 0.011 0.3 0.083 0.074 0.060 0.118 0.145 0.122 0.24 0.007 0.147-0.062 0.251-0.156 0.356-0.087 0.060-0.176 0.092-0.275 0.125-0.012-0.26-0.029-0.547 0.009-0.805z">
            </path>
            <path fill="#683e3d" style="fill: var(--color1, #683e3d)"
                d="M15.128 9.3l0.066 0.022c0.021 0.026 0.029 0.043 0.036 0.077 0.028 0.134 0.054 1.332 0.036 1.482-0.008 0.065-0.025 0.108-0.077 0.15l-0.047-0.006c-0.044-0.032-0.073-0.064-0.104-0.109-0.080-0.118-0.14-0.26-0.208-0.386-0.122-0.228-0.251-0.452-0.387-0.671 0.001 0.232 0.043 1.029-0.033 1.184-0.013-0.002-0.031-0.003-0.043-0.008-0.023-0.009-0.042-0.020-0.052-0.043-0.047-0.112-0.038-1.541 0.002-1.623 0.014-0.030 0.021-0.025 0.050-0.036 0.047 0.016 0.073 0.047 0.1 0.087 0.101 0.15 0.176 0.329 0.262 0.488 0.117 0.216 0.246 0.426 0.363 0.642-0.004-0.343-0.047-0.933 0.036-1.25z">
            </path>
            <path fill="#683e3d" style="fill: var(--color1, #683e3d)"
                d="M10.815 9.303c0.010 0.001 0.020 0 0.029 0.002 0.043 0.010 0.062 0.039 0.076 0.078 0.073 0.203 0.122 0.431 0.182 0.64 0.079 0.274 0.181 0.56 0.234 0.839 0.007 0.040 0.006 0.076-0.016 0.111-0.024 0.038-0.050 0.050-0.092 0.054-0.099-0.064-0.124-0.302-0.171-0.411-0.052-0.023-0.105-0.010-0.16-0.005-0.112 0.010-0.224 0.021-0.335 0.034-0.027 0.085-0.054 0.171-0.084 0.255-0.021 0.059-0.035 0.084-0.091 0.111-0.037-0.018-0.050-0.025-0.061-0.069-0.060-0.237 0.363-1.392 0.49-1.639z">
            </path>
            <path fill="#fff" style="fill: var(--color2, #fff)"
                d="M10.818 9.841c0.069 0.081 0.146 0.422 0.183 0.545l-0.177 0.013c-0.062 0.008-0.119 0.017-0.182 0.006 0.021-0.176 0.118-0.392 0.175-0.564z">
            </path>
            <path fill="#683e3d" style="fill: var(--color1, #683e3d)"
                d="M12.704 9.287c0.217-0.003 0.514-0.042 0.723 0.014 0.057 0.015 0.089 0.037 0.12 0.089 0.007 0.046 0.005 0.065-0.014 0.107-0.072 0.059-0.601 0.034-0.729 0.037l0.001 0.496c0.1-0.005 0.207-0.017 0.307-0.010 0.078 0.005 0.151 0.014 0.207 0.074 0.010 0.053 0.007 0.061-0.013 0.112-0.074 0.071-0.399 0.043-0.508 0.048l-0.001 0.409 0.001 0.167c0.158-0.013 0.397-0.088 0.541-0.071 0.036 0.004 0.042 0.014 0.063 0.044 0.028 0.040 0.036 0.084 0.030 0.132-0.027 0.043-0.044 0.061-0.092 0.080-0.113 0.045-0.606 0.082-0.709 0.031-0.009-0.013-0.021-0.025-0.027-0.039-0.034-0.084-0.014-1.477 0.008-1.654 0.031-0.046 0.038-0.046 0.091-0.066z">
            </path>
            <path fill="#683e3d" style="fill: var(--color1, #683e3d)"
                d="M12.269 9.316c0.043 0.001 0.071 0.007 0.101 0.041 0.040 0.046 0.042 0.095 0.036 0.152-0.059 0.064-0.269 0.091-0.358 0.135-0.182 0.088-0.341 0.248-0.401 0.443-0.054 0.174-0.037 0.383 0.050 0.545 0.044 0.080 0.114 0.157 0.206 0.179 0.065 0.015 0.13-0.001 0.184-0.040 0.137-0.099 0.162-0.279 0.19-0.433-0.102 0.016-0.209 0.046-0.302-0.012-0.007-0.026-0.016-0.032-0-0.058 0.041-0.066 0.129-0.1 0.2-0.121 0.078-0.024 0.183-0.033 0.256 0.006 0.032 0.044 0.033 0.070 0.038 0.123-0.025 0.172-0.012 0.354-0.019 0.527-0.004 0.084-0.008 0.237-0.071 0.296-0.038-0.019-0.031-0.027-0.051-0.062-0.033-0.058-0.041-0.125-0.055-0.19-0.060 0.085-0.122 0.168-0.225 0.202-0.094 0.031-0.188 0.016-0.274-0.031-0.166-0.090-0.284-0.264-0.333-0.443-0.068-0.247-0.021-0.511 0.109-0.73 0.165-0.279 0.408-0.446 0.719-0.526z">
            </path>
            <path fill="#683e3d" style="fill: var(--color1, #683e3d)"
                d="M11.632 11.974c0.016 0.007 0.035 0.014 0.048 0.027 0.043 0.040 0.434 1.438 0.444 1.569 0.005 0.059-0.010 0.083-0.048 0.126l-0.038-0.002c-0.108-0.094-0.148-0.297-0.191-0.431l-0.209 0.012c-0.086 0.002-0.172 0.008-0.258 0.012-0.046 0.115-0.087 0.284-0.161 0.38-0.023 0.030-0.010 0.021-0.049 0.027-0.015-0.018-0.018-0.020-0.028-0.044-0.024-0.056-0.021-0.146-0.011-0.205 0.034-0.185 0.114-0.378 0.173-0.557 0.1-0.305 0.183-0.626 0.328-0.913z">
            </path>
            <path fill="#fff" style="fill: var(--color2, #fff)"
                d="M11.63 12.495c0.068 0.17 0.103 0.374 0.149 0.553l-0.22 0.008c-0.038 0.001-0.052 0.007-0.087-0.011-0.020-0.142 0.111-0.409 0.157-0.55z">
            </path>
            <path fill="#683e3d" style="fill: var(--color1, #683e3d)"
                d="M10.754 11.979c0.086-0.007 0.209-0.030 0.293-0.011 0.066 0.015 0.082 0.047 0.114 0.101 0.001 0.026 0.008 0.043-0.010 0.064-0.086 0.108-0.521 0.085-0.664 0.099l0.007 0.463c0.146-0.005 0.313-0.024 0.449 0.041 0.042 0.020 0.062 0.038 0.079 0.080-0.006 0.014-0.006 0.018-0.018 0.030-0.109 0.111-0.368 0.081-0.513 0.079l-0.002 0.536c0.078-0.004 0.155-0.016 0.232-0.027 0.090-0.015 0.191-0.045 0.282-0.025 0.020 0.016 0.037 0.023 0.045 0.048 0.020 0.057 0.027 0.141-0.002 0.195-0.148 0.047-0.561 0.080-0.712 0.053-0.071-0.166-0.072-1.477-0.031-1.669 0.095-0.083 0.325-0.054 0.45-0.058z">
            </path>
            <path fill="#683e3d" style="fill: var(--color1, #683e3d)"
                d="M13.903 11.981c0.017 0.004 0.046 0.011 0.061 0.017 0.026 0.012 0.046 0.026 0.055 0.053 0.070 0.198-0.284 0.83-0.309 1.089-0.015 0.148 0.057 0.4-0.029 0.531-0.025 0.038-0.044 0.038-0.085 0.048-0.157-0.089-0.053-0.604-0.129-0.83l-0.008-0.022c-0.070-0.2-0.346-0.579-0.36-0.715-0.005-0.047 0.004-0.065 0.032-0.101l0.040-0.004c0.206 0.139 0.353 0.427 0.44 0.654 0.1-0.221 0.135-0.537 0.291-0.72z">
            </path>
            <path fill="#683e3d" style="fill: var(--color1, #683e3d)"
                d="M17.12 9.288c0.060-0.004 0.122-0.011 0.182 0.003 0.053 0.012 0.091 0.034 0.118 0.082-0.008 0.036-0.010 0.049-0.039 0.075-0.114 0.102-0.291 0.082-0.432 0.080l0.007 1.013c0.001 0.135 0.022 0.306-0.005 0.437-0.007 0.037-0.030 0.042-0.060 0.059-0.053 0.004-0.082-0.011-0.128-0.034-0.046-0.475-0.024-0.978-0.031-1.456-0.090 0.002-0.183 0.013-0.269-0.016-0.036-0.039-0.038-0.052-0.050-0.104 0.009-0.028 0.009-0.045 0.032-0.066 0.121-0.11 0.519-0.069 0.676-0.073z">
            </path>
            <path fill="#683e3d" style="fill: var(--color1, #683e3d)"
                d="M16.877 12.012c0.139-0.008 0.319-0.039 0.443 0.039 0.039 0.024 0.052 0.044 0.062 0.087-0.008 0.018-0.008 0.020-0.023 0.037-0.082 0.091-0.242 0.075-0.352 0.074-0.001 0.229 0.033 1.212-0.010 1.366-0.009 0.033-0.035 0.061-0.057 0.087-0.048-0.012-0.077-0.017-0.115-0.052-0.065-0.157-0.031-1.153-0.033-1.398-0.141 0.010-0.259 0.033-0.382-0.054l-0.006-0.042c0.008-0.014 0.009-0.016 0.023-0.031 0.113-0.112 0.304-0.104 0.45-0.113z">
            </path>
            <path fill="#fff" style="fill: var(--color2, #fff)"
                d="M22.65 14.98c0.184 0.193 0.373 0.376 0.597 0.524 1.050 0.693 2.738 0.901 3.957 0.651 0.184 0.219 0.352 0.451 0.522 0.681 0.317 0.438 0.616 0.892 0.911 1.344 0.176 0.27 0.345 0.54 0.494 0.825 0.223 0.399 0.466 0.805 0.635 1.231 0.404 0.89 0.766 1.951 0.655 2.939-0.074 0.66-0.39 1.201-0.91 1.612-0.877 0.693-2.789 1.019-3.899 1.053-0.382 0.011-0.76-0.015-1.139-0.059 0.014-0.179 0.085-0.337 0.102-0.508-0.024-0.040-0.024-0.039-0.068-0.053-0.039 0.006-0.065 0.013-0.095 0.040-0.122 0.112-0.164 0.321-0.167 0.478-0.099-0.024-0.206-0.039-0.284-0.108-0.070-0.061-0.11-0.143-0.114-0.236-0.006-0.139 0.066-0.285 0.157-0.386 0.204-0.226 0.476-0.254 0.761-0.263 0.067 0.041 0.134 0.082 0.202 0.122 0.129 0.076 0.361 0.213 0.512 0.173l0.013-0.022c-0.077-0.084-0.294-0.19-0.409-0.293-0.437-0.39-0.688-0.973-0.716-1.555-0.040-0.828 0.344-1.768 0.991-2.294 0.142-0.116 0.478-0.277 0.561-0.369l-0.005-0.034c-0.020-0.007-0.020-0.009-0.045-0.010-0.158-0.008-0.44 0.155-0.568 0.242-0.277 0.188-0.529 0.445-0.713 0.724-0.372 0.565-0.587 1.262-0.799 1.898l-0.414 1.25c-0.084 0.261-0.172 0.663-0.365 0.862-0.153 0.157-0.401 0.178-0.608 0.179-0.015-0.065-0.028-0.131-0.025-0.198 0.004-0.085 0.055-0.274 0.014-0.342l-0.046-0.006c-0.051 0.020-0.086 0.040-0.118 0.085-0.096 0.13-0.094 0.312-0.074 0.464-0.141-0.028-0.37-0.065-0.485-0.152-0.125-0.095 0.035-0.344 0.009-0.536-0.039-0.003-0.052-0.005-0.087 0.016-0.104 0.061-0.137 0.251-0.162 0.359-0.035-0.138-0.070-0.269-0.030-0.412 0.073-0.263 0.378-0.399 0.597-0.523 0.191-0.415 0.331-1.562 0.406-2.071 0.129-0.868 0.251-1.74 0.394-2.606 0.072-0.418 0.151-0.834 0.238-1.249 0.049-0.242 0.105-0.484 0.133-0.73-0.399 0.482-0.753 2.964-0.884 3.663-0.070-0.382-0.168-0.758-0.234-1.14-0.25-1.439-0.285-2.294 0.096-3.707 0.139-0.526 0.307-1.044 0.506-1.55z">
            </path>
            <path fill="#f5c6af" style="fill: var(--color3, #f5c6af)"
                d="M27.727 16.837c0.317 0.438 0.616 0.892 0.911 1.344-0.203 0.185-0.36 0.413-0.574 0.589-0.256 0.211-0.647 0.407-0.987 0.368-0.152-0.017-0.294-0.081-0.386-0.206-0.124-0.167-0.13-0.394-0.096-0.592 0.113-0.675 0.604-1.126 1.133-1.503z">
            </path>
            <path fill="#f5c6af" style="fill: var(--color3, #f5c6af)"
                d="M29.767 20.237c-0.373 0.374-0.713 0.818-1.257 0.943-0.189 0.043-0.419 0.052-0.587-0.059-0.113-0.074-0.175-0.194-0.198-0.325-0.064-0.37 0.139-0.79 0.349-1.082 0.253-0.351 0.626-0.636 1.057-0.708 0.223 0.399 0.466 0.805 0.635 1.231z">
            </path>
            <path fill="#fff" style="fill: var(--color2, #fff)"
                d="M20.802 9.010c0.531-0.635 1.396-1.253 2.153-1.589 1.356-0.603 2.699-0.535 4.061-0.010 1.138 0.454 2.098 1.344 2.586 2.475 0.407 0.943 0.437 2.335 0.409 3.36l-0.025 0.3c-0.504-0.189-1.555-0.545-2.061-0.336-0.038 0.016-0.041 0.016-0.059 0.056 0.062 0.080 0.324 0.058 0.429 0.067 0.557 0.049 1.133 0.245 1.637 0.475-0.063 0.238-0.127 0.475-0.228 0.701-0.46-0.276-1.447-0.843-1.967-0.86-0.046-0.002-0.067 0.004-0.102 0.034l0.003 0.037c0.060 0.098 0.47 0.206 0.587 0.257 0.481 0.208 0.901 0.49 1.329 0.789-0.141 0.194-0.284 0.346-0.481 0.484-0.279-0.217-0.522-0.47-0.813-0.676-0.192-0.136-0.851-0.527-1.089-0.467-0.030 0.008-0.027 0.020-0.038 0.045 0.016 0.037 0.022 0.050 0.058 0.073 0.058 0.036 0.135 0.053 0.197 0.082 0.198 0.093 0.394 0.197 0.576 0.319 0.32 0.217 0.614 0.469 0.876 0.753-0.29 0.106-0.575 0.168-0.883 0.199-2.004 0.205-4.452-0.611-6-1.881-0.883-0.725-1.731-1.781-1.847-2.951 0.327-0.004 0.652 0.077 0.976 0.107 0.081 0.007 0.168 0.012 0.233-0.042l-0.010-0.039c-0.246-0.211-0.878-0.235-1.2-0.257 0.032-0.243 0.094-0.472 0.168-0.704 0.173 0.070 0.344 0.143 0.508 0.232 0.144 0.078 0.287 0.172 0.439 0.235 0.049 0.020 0.105 0.040 0.158 0.033 0.030-0.004 0.021-0.006 0.039-0.036-0.003-0.019-0.004-0.030-0.012-0.048-0.088-0.203-0.816-0.538-1.026-0.623 0.079-0.161 0.175-0.301 0.288-0.439 0.281 0.184 0.531 0.39 0.798 0.591 0.063 0.048 0.156 0.118 0.239 0.107 0.014-0.028 0.016-0.019 0.009-0.047-0.079-0.292-0.669-0.664-0.916-0.805z">
            </path>
            <path fill="#f5c6af" style="fill: var(--color3, #f5c6af)"
                d="M27.016 7.411c1.138 0.454 2.098 1.344 2.586 2.475 0.407 0.943 0.437 2.335 0.409 3.36-0.565-0.019-1.206-0.062-1.731-0.291-0.726-0.317-1.608-1.107-1.893-1.844l-0.017-0.026c-0.174-0.187-0.235-0.696-0.251-0.945-0.064-0.977 0.248-1.99 0.897-2.73z">
            </path>
            <path fill="#683e3d" style="fill: var(--color1, #683e3d)"
                d="M26.37 11.085c-0.036-0.354 0.092-0.648 0.311-0.919 0.12-0.149 0.339-0.387 0.538-0.41 0.047-0.005 0.091 0.007 0.125 0.041 0.072 0.072 0.079 0.204 0.069 0.3-0.035 0.352-0.294 0.8-0.574 1.014-0.080 0.061-0.183 0.108-0.286 0.094-0.067-0.009-0.117-0.049-0.166-0.093l-0.017-0.026z">
            </path>
            <path fill="#683e3d" style="fill: var(--color1, #683e3d)"
                d="M23.788 10.557c0.162 0.016 0.323 0.063 0.474 0.123 0.090 0.035 0.218 0.093 0.249 0.195 0.012 0.039 0.005 0.080-0.015 0.116-0.083 0.151-0.361 0.254-0.519 0.304-0.017 0.069-0.033 0.138-0.040 0.208-0.017 0.182 0.039 0.376 0.159 0.515 0.102 0.118 0.239 0.191 0.396 0.198 0.284 0.013 0.422-0.149 0.611-0.327 0.028 0.013 0.032 0.006 0.037 0.030 0.021 0.092-0.071 0.256-0.126 0.326-0.1 0.129-0.252 0.197-0.412 0.213-0.229 0.024-0.421-0.053-0.598-0.192-0.187-0.19-0.24-0.4-0.283-0.654-0.16 0.13-0.34 0.211-0.551 0.203-0.18-0.006-0.366-0.084-0.486-0.221-0.094-0.106-0.133-0.243-0.12-0.384 0.009-0.096 0.054-0.216 0.136-0.274 0.024-0.017 0.018-0.011 0.050-0.002 0.001 0.102-0.011 0.229 0.012 0.329s0.122 0.2 0.209 0.247c0.123 0.068 0.275 0.074 0.408 0.035 0.176-0.051 0.318-0.169 0.404-0.329 0.004-0.007 0.007-0.014 0.011-0.021-0.018-0.034-0.034-0.070-0.048-0.106-0.047-0.12-0.133-0.333-0.063-0.455 0.028-0.049 0.054-0.060 0.103-0.078z">
            </path>
            <path fill="#683e3d" style="fill: var(--color1, #683e3d)"
                d="M23.45 8.363c0.044-0.006 0.098-0.016 0.142-0.003 0.063 0.020 0.11 0.052 0.138 0.115 0.043 0.096-0.005 0.243-0.038 0.337-0.127 0.365-0.385 0.719-0.738 0.889-0.040 0.011-0.080 0.020-0.122 0.009-0.057-0.015-0.108-0.040-0.134-0.096-0.059-0.129 0.007-0.345 0.057-0.473 0.126-0.325 0.372-0.637 0.695-0.779z">
            </path>
            <path fill="#fff" style="fill: var(--color2, #fff)"
                d="M10.521 19.386c0.031-0.004 0.055-0.003 0.086-0.002l0.027 0.031c0.102 0.394-0.115 1.468-0.268 1.89-0.074 0.203-0.187 0.391-0.262 0.594-0.023 0.062-0.063 0.158-0.035 0.221 0.082 0.012 0.251-0.248 0.31-0.316 0.389-0.451 0.985-0.754 1.562-0.874 0.022 0.549-0.181 1.219-0.52 1.654-0.094 0.12-0.221 0.208-0.311 0.333-0.004 0.005-0.007 0.011-0.011 0.016 0.24-0.068 0.466-0.196 0.706-0.271 0.617-0.194 1.381-0.206 1.966 0.096-0.104 0.136-0.214 0.273-0.283 0.431-0.044 0.099-0.12 0.29-0.082 0.394l0.032 0.010c0.088-0.070 0.141-0.206 0.208-0.298 0.18-0.249 0.406-0.453 0.66-0.625 0.020 0.244 0.041 0.561-0.007 0.8-0.028 0.14-0.083 0.273-0.109 0.414l0.036 0.007c0.093-0.038 0.16-0.109 0.241-0.167 0.391-0.283 0.975-0.296 1.431-0.221-0.213 0.603-0.317 0.684-0.878 0.962l0.003 0.028c0.156 0.093 0.39-0.065 0.552-0.090 0.43-0.067 1.169 0.356 1.505 0.604-0.87 0.057-1.74 0.008-2.61 0.038-0.792 0.027-1.581 0.144-2.375 0.175-0.774 0.030-1.546 0.013-2.321 0.014-0.626 0.007-1.251 0.019-1.877 0.035-0.779 0.008-1.553-0.047-2.331-0.051-1.327-0.008-2.654 0.023-3.981 0.022 0.235-0.256 0.567-0.583 0.912-0.68 0.090-0.025 0.197-0.026 0.291-0.036 0.057-0.006 0.109-0.010 0.145-0.055l-0.014-0.035c-0.112-0.063-0.256-0.057-0.381-0.061-0.363-0.456-0.604-1.459-0.564-2.031 0.551-0.006 1.515 0.315 1.892 0.738 0.082 0.092 0.14 0.318 0.252 0.363 0.007-0.009 0.017-0.017 0.021-0.028 0.024-0.067 0-0.252 0.001-0.331 0.002-0.228 0.054-0.876 0.198-1.042 0.026-0.031 0.035-0.029 0.073-0.031 0.091 0.076 0.153 0.205 0.211 0.306s0.133 0.222 0.166 0.334c0.057 0.2-0.042 0.477 0.049 0.683 0.016 0.036 0.022 0.038 0.056 0.050 0.066-0.064 0.046-0.173 0.049-0.259 0.025-0.784 0.474-1.766 0.949-2.369 0.213-0.272 0.47-0.512 0.721-0.749 0.169 0.402 0.329 1.059 0.359 1.492 0.021 0.302-0.134 0.762-0.015 1.024l0.025 0.006c0.060-0.090 0.080-0.274 0.112-0.385 0.068-0.234 0.148-0.458 0.279-0.665 0.689-1.088 1.914-1.811 3.151-2.093z">
            </path>
            <path fill="#f5c6af" style="fill: var(--color3, #f5c6af)"
                d="M32.887 19.58c0.255-0.244 0.322-0.438 0.666-0.621 0.153-0.082 0.365-0.144 0.536-0.082 0.075 0.027 0.144 0.069 0.221 0.091l0.028 0.008c0.281 1.235-0.031 2.662-0.699 3.727-0.527 0.859-1.375 1.474-2.356 1.707-0.341 0.078-0.706 0.103-1.056 0.103 0.167-0.285 0.311-0.558 0.415-0.873 0.804-0.186 1.5-0.622 1.941-1.327 0.455-0.726 0.57-1.635 0.375-2.463-0.021-0.091-0.045-0.181-0.072-0.27z">
            </path>
            <path fill="#fff" style="fill: var(--color2, #fff)"
                d="M13.299 15.783c0.133-0.005 0.266-0.007 0.399-0.010 0.010 0.832 0 1.663 0.002 2.495l-0.003 4.125c-0.196-0.065-0.396-0.106-0.599-0.141-0.178-0.023-0.356-0.029-0.535-0.032l-0.002-6.432 0.737-0.006z">
            </path>
            <path fill="#eb857a" style="fill: var(--color4, #eb857a)"
                d="M29.027 8.513c1 0.014 2.543 0.328 3.316 0.972-0.112 0.318-0.218 0.641-0.357 0.948-0.304 0.668-0.767 1.322-1.281 1.844-0.122 0.124-0.252 0.24-0.391 0.345-0.017-0.329-0.030-0.659-0.041-0.988 0.058-0.036 0.115-0.072 0.171-0.112 0.584-0.416 0.96-1.063 1.080-1.765-0.036-0.037-0.072-0.075-0.114-0.106-0.442-0.329-1.199-0.318-1.714-0.236-0.185-0.338-0.402-0.623-0.669-0.901z">
            </path>
            <path fill="#fff" style="fill: var(--color2, #fff)"
                d="M32.887 19.58c-0.081-0.235-0.186-0.466-0.303-0.685-0.154-0.289-0.369-0.59-0.434-0.915-0.046-0.229-0.024-0.486 0.11-0.682 0.119-0.174 0.31-0.272 0.515-0.306 0.246-0.041 0.482 0.030 0.683 0.172 0.534 0.379 0.774 1.2 0.88 1.811l-0.028-0.008c-0.076-0.022-0.146-0.064-0.221-0.091-0.17-0.062-0.383 0-0.536 0.082-0.344 0.184-0.411 0.378-0.666 0.621z">
            </path>
            <path fill="#fff" style="fill: var(--color2, #fff)"
                d="M26.62 5.392c0.029-0.005 0.036-0.002 0.064 0.006 0.141 0.267 0.067 1.313 0.031 1.647-0.986-0.314-2.12-0.41-3.131-0.144-0.322 0.085-0.632 0.214-0.932 0.355l-0.361 0.201c1.267-1.059 2.693-1.792 4.33-2.065z">
            </path>
            <path fill="#fff" style="fill: var(--color2, #fff)"
                d="M21.643 19.519c0.071 0.205 0.079 0.47 0.113 0.687 0.091 0.572 0.201 1.192 0.425 1.728-0.035 0.35-0.112 0.702-0.169 1.049-0.069 0.418-0.122 0.838-0.22 1.251-0.205 0.061-0.388 0.163-0.525 0.329-0.142 0.173-0.184 0.351-0.16 0.569 0.001 0.021-0.002 0.042-0.004 0.062l-0.035 0.010c-0.118-0.032-0.26-0.145-0.323-0.249-0.37-0.61 0.372-0.821 0.522-1.131 0.237-0.49 0.228-1.948 0.247-2.523 0.015-0.359 0.035-0.718 0.060-1.076 0.015-0.229 0.014-0.482 0.067-0.705z">
            </path>
            <path fill="#fff" style="fill: var(--color2, #fff)"
                d="M29.8 9.62c0.479-0.034 0.993 0.030 1.436 0.216-0.107 0.383-0.261 0.684-0.494 1.008-0.151 0.195-0.321 0.361-0.514 0.514-0.037-0.46-0.11-0.906-0.264-1.343-0.046-0.129-0.112-0.249-0.158-0.378l-0.006-0.017z">
            </path>
            <path fill="#fff" style="fill: var(--color2, #fff)"
                d="M13.015 6.009c0.171-0.005 0.367 0.042 0.493 0.163 0.236 0.226 0.214 0.707 0.225 1.012l-0.369 0.003-0.765 0.011c-0.005-0.29-0.052-0.679 0.093-0.944 0.075-0.136 0.178-0.199 0.323-0.244z">
            </path>
            <path fill="#fff" style="fill: var(--color2, #fff)"
                d="M19.003 9.56c0.353 0.008 0.674 0.065 1.013 0.156-0.086 0.224-0.132 0.456-0.177 0.69-0.005 0.027-0.009 0.092-0.020 0.112-0.006 0.010-0.016 0.018-0.024 0.027-0.291 0.042-0.54 0.126-0.793 0.275l0.001-1.261z">
            </path>
            <path fill="#fff" style="fill: var(--color2, #fff)"
                d="M24.076 23.2c0.059 0.503 0.181 0.887 0.459 1.31-0.089 0.006-0.173 0.008-0.258 0.039-0.178-0.118-0.354-0.235-0.508-0.383 0.097-0.322 0.186-0.651 0.306-0.965z">
            </path>
            <path fill="#fff" style="fill: var(--color2, #fff)"
                d="M23.678 24.465c0.111 0.066 0.216 0.137 0.32 0.214-0.159 0.117-0.286 0.248-0.34 0.442-0.003 0.015-0.010 0.046-0.015 0.060-0.017 0.041-0.054 0.050-0.095 0.057-0.047 0.008-0.066 0.004-0.102-0.026-0.011-0.188 0.163-0.557 0.232-0.747z">
            </path>
            <path fill="#fff" style="fill: var(--color2, #fff)"
                d="M12.212 21.483c0.037 0.161 0.001 0.59-0.003 0.78-0.116 0.026-0.23 0.057-0.345 0.087-0.002-0.073 0.178-0.378 0.219-0.475 0.053-0.128 0.091-0.26 0.129-0.392z">
            </path>
        </symbol>
        <symbol id="icon-sendReviews" viewBox="0 0 28 32">
            <path
                d="M0.696 1.177c0.117 0 0.233 0.030 0.335 0.086l25.687 14.128c0.337 0.185 0.46 0.608 0.274 0.945-0.064 0.116-0.159 0.211-0.274 0.274l-25.687 14.128c-0.337 0.185-0.76 0.062-0.945-0.274-0.057-0.103-0.086-0.218-0.086-0.335v-28.256c0-0.384 0.311-0.696 0.696-0.696zM2.783 5.402v9.207h6.957v2.783h-6.957v9.207l19.269-10.598-19.269-10.598z">
            </path>
        </symbol>
        <symbol id="icon-star" viewBox="0 0 35 32">
            <path
                d="M17.333 0l3.892 11.977h12.593l-10.188 7.402 3.892 11.977-10.188-7.402-10.188 7.402 3.892-11.977-10.188-7.402h12.593l3.892-11.977z">
            </path>
        </symbol>
        <symbol id="icon-deleteReview" viewBox="0 0 34 32">
            <path
                d="M24.847 6.4h8v3.2h-3.2v20.8c0 0.884-0.716 1.6-1.6 1.6h-22.4c-0.884 0-1.6-0.716-1.6-1.6v-20.8h-3.2v-3.2h8v-4.8c0-0.884 0.716-1.6 1.6-1.6h12.8c0.884 0 1.6 0.716 1.6 1.6v4.8zM26.447 9.6h-19.2v19.2h19.2v-19.2zM12.047 14.4h3.2v9.6h-3.2v-9.6zM18.447 14.4h3.2v9.6h-3.2v-9.6zM12.047 3.2v3.2h9.6v-3.2h-9.6z">
            </path>
        </symbol>
    </defs>
</svg>